<svg xmlns="http://www.w3.org/2000/svg" xmlns:xlink="http://www.w3.org/1999/xlink" viewBox="0 0 600 600"><defs><style>.cls-1{isolation:isolate;}.cls-2{fill:url(#Безымянный_градиент_169);}.cls-10,.cls-11,.cls-12,.cls-15,.cls-18,.cls-19,.cls-20,.cls-21,.cls-22,.cls-23,.cls-24,.cls-25,.cls-26,.cls-27,.cls-28,.cls-29,.cls-3,.cls-30,.cls-31,.cls-32,.cls-33,.cls-34,.cls-35,.cls-36,.cls-37,.cls-38,.cls-4,.cls-40,.cls-44,.cls-49,.cls-53,.cls-56,.cls-57,.cls-6,.cls-7,.cls-8,.cls-9{mix-blend-mode:multiply;}.cls-20,.cls-21,.cls-3,.cls-6,.cls-7{opacity:0.6;}.cls-3{fill:url(#Безымянный_градиент_86);}.cls-10,.cls-11,.cls-12,.cls-14,.cls-15,.cls-18,.cls-19,.cls-23,.cls-24,.cls-25,.cls-26,.cls-27,.cls-28,.cls-29,.cls-30,.cls-32,.cls-33,.cls-34,.cls-35,.cls-36,.cls-37,.cls-38,.cls-4,.cls-9{opacity:0.5;}.cls-4{fill:url(#Безымянный_градиент_229);}.cls-5{fill:url(#Безымянный_градиент_169-2);}.cls-6{fill:url(#Безымянный_градиент_215);}.cls-7{fill:url(#Безымянный_градиент_86-2);}.cls-31,.cls-8{opacity:0.3;}.cls-8{fill:url(#Безымянный_градиент_231);}.cls-9{fill:url(#Безымянный_градиент_95);}.cls-10{fill:url(#Безымянный_градиент_229-2);}.cls-11{fill:url(#Безымянный_градиент_95-2);}.cls-12{fill:url(#Безымянный_градиент_229-3);}.cls-13{fill:#fff;}.cls-14{fill:#75b4e3;mix-blend-mode:soft-light;}.cls-15{fill:url(#Безымянный_градиент_229-4);}.cls-16{fill:url(#Безымянный_градиент_81);}.cls-17{fill:url(#Безымянный_градиент_81-2);}.cls-18{fill:url(#Безымянный_градиент_229-5);}.cls-19{fill:url(#Безымянный_градиент_229-6);}.cls-20{fill:url(#Безымянный_градиент_86-3);}.cls-21{fill:url(#Безымянный_градиент_86-4);}.cls-22{opacity:0.4;fill:url(#Безымянный_градиент_86-5);}.cls-23{fill:url(#Безымянный_градиент_229-7);}.cls-24{fill:url(#Безымянный_градиент_229-8);}.cls-25{fill:url(#Безымянный_градиент_229-9);}.cls-26{fill:url(#Безымянный_градиент_229-10);}.cls-27{fill:url(#Безымянный_градиент_229-11);}.cls-28{fill:url(#Безымянный_градиент_229-12);}.cls-29{fill:url(#Безымянный_градиент_229-13);}.cls-30{fill:url(#Безымянный_градиент_229-14);}.cls-31{fill:url(#Безымянный_градиент_229-15);}.cls-32{fill:url(#Безымянный_градиент_229-16);}.cls-33{fill:url(#Безымянный_градиент_95-3);}.cls-34{fill:url(#Безымянный_градиент_229-17);}.cls-35{fill:url(#Безымянный_градиент_95-4);}.cls-36{fill:url(#Безымянный_градиент_229-18);}.cls-37{fill:url(#Безымянный_градиент_95-5);}.cls-38{fill:url(#Безымянный_градиент_95-6);}.cls-39{fill:#6e6f70;}.cls-40,.cls-44,.cls-49,.cls-53,.cls-55,.cls-56,.cls-57,.cls-58{opacity:0.25;}.cls-40{fill:url(#linear-gradient);}.cls-41{fill:#d1865e;}.cls-42{fill:#c17953;}.cls-43{fill:#f0a037;}.cls-44{fill:url(#linear-gradient-2);}.cls-45{fill:#eb5c2a;}.cls-46{fill:#919396;}.cls-47{fill:#f8ae41;}.cls-48{fill:#db8f66;}.cls-49{fill:url(#linear-gradient-3);}.cls-50{fill:#b86f4a;}.cls-51{fill:#754d28;}.cls-52{fill:#231f20;}.cls-53{fill:url(#linear-gradient-4);}.cls-54{fill:#404042;}.cls-55,.cls-58{mix-blend-mode:overlay;}.cls-55{fill:url(#linear-gradient-5);}.cls-56{fill:url(#linear-gradient-6);}.cls-57{fill:url(#linear-gradient-7);}.cls-58{fill:url(#linear-gradient-8);}</style><linearGradient id="Безымянный_градиент_169" x1="573.01" y1="163.36" x2="573.01" y2="152.52" gradientTransform="translate(-3.43 7.12) rotate(-0.89)" gradientUnits="userSpaceOnUse"><stop offset="0" stop-color="#dad3e8"/><stop offset="0.94" stop-color="#fcfeff"/></linearGradient><linearGradient id="Безымянный_градиент_86" x1="573.01" y1="163.36" x2="573.01" y2="155.6" gradientTransform="translate(-3.43 7.12) rotate(-0.89)" gradientUnits="userSpaceOnUse"><stop offset="0.01" stop-color="#8281bd"/><stop offset="0.16" stop-color="#9190c5"/><stop offset="0.45" stop-color="#bab6db"/><stop offset="0.59" stop-color="#d1cce7"/><stop offset="1" stop-color="#fff"/></linearGradient><linearGradient id="Безымянный_градиент_229" x1="571.53" y1="163.36" x2="571.53" y2="156.69" gradientTransform="translate(-3.43 7.12) rotate(-0.89)" gradientUnits="userSpaceOnUse"><stop offset="0.01" stop-color="#8883bc"/><stop offset="0.17" stop-color="#9792c5"/><stop offset="0.48" stop-color="#c0bbdd"/><stop offset="0.59" stop-color="#d1cce7"/><stop offset="1" stop-color="#fff"/></linearGradient><linearGradient id="Безымянный_градиент_169-2" x1="607.43" y1="148.32" x2="607.43" y2="105.93" gradientTransform="matrix(1, 0, 0, 1, 0, 0)" xlink:href="#Безымянный_градиент_169"/><linearGradient id="Безымянный_градиент_215" x1="607.43" y1="148.32" x2="607.43" y2="112.43" gradientUnits="userSpaceOnUse"><stop offset="0.01" stop-color="#8281bd"/><stop offset="0.08" stop-color="#9190c5"/><stop offset="0.23" stop-color="#bab6db"/><stop offset="0.3" stop-color="#d1cce7"/><stop offset="1" stop-color="#fff"/></linearGradient><linearGradient id="Безымянный_градиент_86-2" x1="579.45" y1="127.26" x2="579.45" y2="126.87" gradientTransform="matrix(1, 0, 0, 1, 0, 0)" xlink:href="#Безымянный_градиент_86"/><linearGradient id="Безымянный_градиент_231" x1="579.36" y1="140.84" x2="579.36" y2="126.85" gradientUnits="userSpaceOnUse"><stop offset="0" stop-color="#fff"/><stop offset="0.41" stop-color="#d1cce7"/><stop offset="0.55" stop-color="#bab6db"/><stop offset="0.84" stop-color="#9190c5"/><stop offset="0.99" stop-color="#8281bd"/></linearGradient><linearGradient id="Безымянный_градиент_95" x1="564.22" y1="127.83" x2="564.22" y2="121.67" gradientUnits="userSpaceOnUse"><stop offset="0" stop-color="#fff"/><stop offset="0.41" stop-color="#d1cce7"/><stop offset="0.52" stop-color="#c0bbdd"/><stop offset="0.83" stop-color="#9792c5"/><stop offset="0.99" stop-color="#8883bc"/></linearGradient><linearGradient id="Безымянный_градиент_229-2" x1="592.89" y1="148.24" x2="592.89" y2="145.63" gradientTransform="matrix(1, 0, 0, 1, 0, 0)" xlink:href="#Безымянный_градиент_229"/><linearGradient id="Безымянный_градиент_95-2" x1="593.4" y1="134.62" x2="621.73" y2="134.62" xlink:href="#Безымянный_градиент_95"/><linearGradient id="Безымянный_градиент_229-3" x1="543.84" y1="131.31" x2="588.26" y2="131.31" gradientTransform="matrix(1, 0, 0, 1, 0, 0)" xlink:href="#Безымянный_градиент_229"/><linearGradient id="Безымянный_градиент_229-4" x1="599.92" y1="288.23" x2="632.23" y2="288.23" gradientTransform="matrix(1, 0, 0, 1, 0, 0)" xlink:href="#Безымянный_градиент_229"/><radialGradient id="Безымянный_градиент_81" cx="362.58" cy="117.29" r="171.56" gradientUnits="userSpaceOnUse"><stop offset="0.06" stop-color="#fcfeff"/><stop offset="1" stop-color="#dad3e8"/></radialGradient><radialGradient id="Безымянный_градиент_81-2" cx="507.1" cy="108.61" r="17.83" xlink:href="#Безымянный_градиент_81"/><linearGradient id="Безымянный_градиент_229-5" x1="356.56" y1="88.76" x2="367.13" y2="88.76" gradientTransform="matrix(1, 0, 0, 1, 0, 0)" xlink:href="#Безымянный_градиент_229"/><linearGradient id="Безымянный_градиент_229-6" x1="392.91" y1="182.65" x2="392.91" y2="93.2" gradientTransform="matrix(1, 0, 0, 1, 0, 0)" xlink:href="#Безымянный_градиент_229"/><linearGradient id="Безымянный_градиент_86-3" x1="337.54" y1="208.7" x2="337.54" y2="205.22" gradientTransform="matrix(1, 0, 0, 1, 0, 0)" xlink:href="#Безымянный_градиент_86"/><linearGradient id="Безымянный_градиент_86-4" x1="482.34" y1="138.3" x2="482.34" y2="136.1" gradientTransform="matrix(1, 0, 0, 1, 0, 0)" xlink:href="#Безымянный_градиент_86"/><linearGradient id="Безымянный_градиент_86-5" x1="427.86" y1="229.29" x2="427.86" y2="114.27" gradientTransform="matrix(1, 0, 0, 1, 0, 0)" xlink:href="#Безымянный_градиент_86"/><linearGradient id="Безымянный_градиент_229-7" x1="305.27" y1="204.58" x2="305.27" y2="202.63" gradientTransform="matrix(1, 0, 0, 1, 0, 0)" xlink:href="#Безымянный_градиент_229"/><linearGradient id="Безымянный_градиент_229-8" x1="316.11" y1="230.4" x2="316.11" y2="208.43" gradientTransform="matrix(1, 0, 0, 1, 0, 0)" xlink:href="#Безымянный_градиент_229"/><linearGradient id="Безымянный_градиент_229-9" x1="260.77" y1="225.35" x2="260.77" y2="202.66" gradientTransform="matrix(1, 0, 0, 1, 0, 0)" xlink:href="#Безымянный_градиент_229"/><linearGradient id="Безымянный_градиент_229-10" x1="312.12" y1="202.46" x2="326.43" y2="202.46" gradientTransform="matrix(1, 0, 0, 1, 0, 0)" xlink:href="#Безымянный_градиент_229"/><linearGradient id="Безымянный_градиент_229-11" x1="461.93" y1="228.98" x2="461.93" y2="167.75" gradientTransform="matrix(1, 0, 0, 1, 0, 0)" xlink:href="#Безымянный_градиент_229"/><linearGradient id="Безымянный_градиент_229-12" x1="360.54" y1="182.64" x2="360.54" y2="182.45" gradientTransform="matrix(1, 0, 0, 1, 0, 0)" xlink:href="#Безымянный_градиент_229"/><linearGradient id="Безымянный_градиент_229-13" x1="373.48" y1="223.99" x2="373.48" y2="178.39" gradientTransform="matrix(1, 0, 0, 1, 0, 0)" xlink:href="#Безымянный_градиент_229"/><linearGradient id="Безымянный_градиент_229-14" x1="410.74" y1="207.98" x2="410.74" y2="206.51" gradientTransform="matrix(1, 0, 0, 1, 0, 0)" xlink:href="#Безымянный_градиент_229"/><linearGradient id="Безымянный_градиент_229-15" x1="475.08" y1="142.88" x2="475.08" y2="110.47" gradientTransform="matrix(1, 0, 0, 1, 0, 0)" xlink:href="#Безымянный_градиент_229"/><linearGradient id="Безымянный_градиент_229-16" x1="503.82" y1="138.3" x2="503.82" y2="110.47" gradientTransform="matrix(1, 0, 0, 1, 0, 0)" xlink:href="#Безымянный_градиент_229"/><linearGradient id="Безымянный_градиент_95-3" x1="500.36" y1="180.41" x2="500.36" y2="142.04" xlink:href="#Безымянный_градиент_95"/><linearGradient id="Безымянный_градиент_229-17" x1="258.04" y1="225.35" x2="258.04" y2="211.21" gradientTransform="matrix(1, 0, 0, 1, 0, 0)" xlink:href="#Безымянный_градиент_229"/><linearGradient id="Безымянный_градиент_95-4" x1="409.88" y1="176.15" x2="409.88" y2="133.62" xlink:href="#Безымянный_градиент_95"/><linearGradient id="Безымянный_градиент_229-18" x1="333.97" y1="156.49" x2="364.17" y2="156.49" gradientTransform="matrix(1, 0, 0, 1, 0, 0)" xlink:href="#Безымянный_градиент_229"/><linearGradient id="Безымянный_градиент_95-5" x1="466.85" y1="204.8" x2="486.68" y2="204.8" xlink:href="#Безымянный_градиент_95"/><linearGradient id="Безымянный_градиент_95-6" x1="418.54" y1="120.67" x2="418.54" y2="103.75" xlink:href="#Безымянный_градиент_95"/><linearGradient id="linear-gradient" x1="-25.05" y1="245.84" x2="67.17" y2="245.84" gradientTransform="matrix(-1, 0, 0, 1, 600.77, 0)" gradientUnits="userSpaceOnUse"><stop offset="0" stop-color="#231f20"/><stop offset="1" stop-color="#231f20" stop-opacity="0"/></linearGradient><linearGradient id="linear-gradient-2" x1="140.52" y1="229.5" x2="108.14" y2="286.75" xlink:href="#linear-gradient"/><linearGradient id="linear-gradient-3" x1="117.35" y1="288.16" x2="132.97" y2="308.98" xlink:href="#linear-gradient"/><linearGradient id="linear-gradient-4" x1="141.53" y1="296.49" x2="129.86" y2="276.49" xlink:href="#linear-gradient"/><linearGradient id="linear-gradient-5" x1="140.94" y1="273.58" x2="162.88" y2="276.52" gradientTransform="matrix(-1, 0, 0, 1, 600.77, 0)" gradientUnits="userSpaceOnUse"><stop offset="0" stop-color="#fff"/><stop offset="1" stop-color="#fff" stop-opacity="0"/></linearGradient><linearGradient id="linear-gradient-6" x1="20.88" y1="245.21" x2="118.04" y2="245.21" xlink:href="#linear-gradient"/><linearGradient id="linear-gradient-7" x1="102.74" y1="355.86" x2="81.81" y2="322.44" xlink:href="#linear-gradient"/><linearGradient id="linear-gradient-8" x1="120.58" y1="336.29" x2="71.38" y2="257.72" xlink:href="#linear-gradient-5"/></defs><g class="cls-1"><g id="Calque_1" data-name="Calque 1"><path class="cls-2" d="M598.94,160.16l-.08,0a50.57,50.57,0,0,1-11.91.72l-1.35-.06c-9.22-.45-14.43-1.73-22.2-.09s-9.24.83-13.29.89a17.51,17.51,0,0,1-4.94-.57,11,11,0,0,1,2.82-1.71,6.41,6.41,0,0,1,5.27-.09,3.19,3.19,0,0,1,1.52-.06,4.16,4.16,0,0,0,2.32-.71,1.9,1.9,0,0,0,.22-.85h0a12.2,12.2,0,0,1,.41-2,5.61,5.61,0,0,1,3.12-3.61c3.87-1.78,5.78.37,5.78.37s.65-2.26,2.43-.5c0,0,1.65-.83,1.14,1.86a8.49,8.49,0,0,1,7.09-3.18c4.87.09,6.57,5.77,6.57,5.77s2.72-1.87,3.92,1.9c0,0,.77-.52.62.6,0,0,.83.48,5.91-.16a7,7,0,0,1,4.62,1.43Z"/><path class="cls-3" d="M598.94,160.16l-.08,0a53.49,53.49,0,0,1-13.26.66c-9.22-.45-14.43-1.73-22.2-.09s-9.24.83-13.29.89a17.51,17.51,0,0,1-4.94-.57s4.11-3.66,8.09-1.8a3.19,3.19,0,0,1,1.52-.06,4.16,4.16,0,0,0,2.32-.71c.23-.24.19-1.46.63-2.83-.63,2.83,4.56,2.94,9.75,2.39s2.24-3.28,2.24-3.28l-1-.73,1.43-.26s-.15.2,0,.79,1.58,2.38,6.61,3.21,7.06-1.41,7.06-1.41.27.26-1.59,1.64,2.56,1.77,8.18,1.28c5.46-.47,8.33.79,8.48.85Z"/><path class="cls-4" d="M596,159.41a18.91,18.91,0,0,0-7,.93,13.86,13.86,0,0,1-2,.56l-1.35-.06c-9.22-.45-14.43-1.73-22.2-.09s-9.24.83-13.29.89a17.51,17.51,0,0,1-4.94-.57,11,11,0,0,1,2.82-1.71c-.74,1.27,7.67,2.66,14.29,1.39s-5.18-2.25-5.18-2.25l.22-.85c0,.07.44.8,4.53,1,4.31.19,6.42.56,8.34-.28s.18-2.7.18-2.7l0-.77a6,6,0,0,0,1.68,2.76c1.36,1.3,7.65,1.18,10-.16l1.37-.69s.09.24-1.85,1.45,5.9,1.24,5.9,1.24A49.15,49.15,0,0,1,596,159.41Z"/><path class="cls-5" d="M681.62,145.92H671.49s-2.77,1-3.65-.83a89.22,89.22,0,0,0-13.36.13h0c-1.18.11-2.38.24-3.58.41-.95.13-1.88.28-2.79.42h0c-7.31,1.16-13.92,2.47-24,2.08-8-.31-9.17-.38-12.43-.55l-5.67-.26c-9.12-.41-7.77,1.49-15.4.88s-6.69-2.57-6.69-2.57-.47-3.18,3.58-2.7c0,0-.13-.61.41-.61a71.71,71.71,0,0,0,7.27-1.47h0c1.19-.4,1.13-.72-2.17-.75-8.71-.06-17.76.55-31.14-2.43s-14-5.23-18.4-3.71-10.3-.69-10.3-.69,2.9-3.86,6.68,0a8.39,8.39,0,0,1,0-1.15V132c.08-2.87,1.25-9.3,10.7-3.43h0l0-.05c.06-.05.15-.15.27-.27l.05,0c.55-.52,1.6-1.33,2.46-1l0-.41c.15-1.93,1.2-10.33,8-14.42h0a15.35,15.35,0,0,1,4.24-1.71s5.67-10.33,9.72-.61c0,0,9.32-1.14,5.68,13.87.1-.24,2.23-5,5-2.62,0,0,1.9-7.33,11.89-1,0,0,11.91-12.18,19.72.27,0,0,2.44-2.84,1.49,2.3,0,0,5.42-1.14,6.57,3.68a8.29,8.29,0,0,1,.22,2,5.56,5.56,0,0,1-.52,2.44c-1.34,2.88-5.06,3.75-7.55,4a18.36,18.36,0,0,1-2.44.09s-4.08,2.49-15.87,2.55c0,0,6.57,2.16-1.69,4.42q-1.08.3-2.55.6c.35-.05,2.22-.29,3,1a8.52,8.52,0,0,1,5.34-.74,7.85,7.85,0,0,1,3.75,2.43,5.92,5.92,0,0,1,.4.5l0,0h0s2.34-1.42,3.43-.31l0-.15h0v0c-.18-.95-.45-5.7,10.77-6.51l.31,0s1.15-2.39,2.94-1.77c0,0,1.82-7.45,9.12-7,3.83.24,5.17,4,5.6,5.72h0a5.79,5.79,0,0,1,.16.84v.07a1.51,1.51,0,0,1,2.33-1v0l0,0,.05-.12.08-.16.1-.22.1-.22c1.19-2.46,5.23-9.89,10.58-9.56,6.42.41,7.44,7,7.44,7a3.16,3.16,0,0,1,3.5,1.69,5.76,5.76,0,0,1,.72,3.24h0a7.11,7.11,0,0,1-.31,1.74s1.42-1,1.28.67c0,0,3.38-.54,4,2.7,0,0,8.22-6.83,11.24,2.37,0,0,0,0,0,0C681.44,145.24,681.53,145.57,681.62,145.92Z"/><path class="cls-6" d="M681.62,145.92H671.49s-2.77,1-3.65-.83a87.8,87.8,0,0,0-17,.54c-8.51,1.22-15.46,2.94-26.75,2.5s-9-.4-18.1-.81-7.77,1.49-15.4.88-6.69-2.57-6.69-2.57-.47-3.18,3.58-2.7c0,0-.13-.61.41-.61,0,0,13.84-2.16,5.13-2.23s-17.76.55-31.14-2.43-14-5.23-18.4-3.71-10.3-.69-10.3-.69,2.9-3.86,6.68,0c0,0-1.19-12,10.68-4.67,0,0,1.61-1.87,2.83-1.33,0,0,.31-10.19,8.05-14.83-6,6.87-3.15,9.46,3.64,11a16.36,16.36,0,0,1,4.22-2.21,4.57,4.57,0,0,0-2.8,4.64c.4,3.34,10.53,5,14.59-1.86,0,0-.1.58-2.54,4.61s13,4.26,19,.15l-.41-.87a15.39,15.39,0,0,1-4.72-2.57,10.12,10.12,0,0,0,5.89,2.06A7.25,7.25,0,0,0,603.6,125c-.05.15-1,2.56-5.11,3.14,0,0-.35.4,2,2.63s7.66,1.44,9.76.15l2.83-.25c-.44.09-2.85.64-3.1,1.81s8.84.74,12.22-2a15.25,15.25,0,0,0,3.6-3.81,8.29,8.29,0,0,1,.22,2c0,7.08-10.51,6.52-10.51,6.52s-4.08,2.49-15.87,2.55c0,0,6.57,2.16-1.69,4.42a4.27,4.27,0,0,0-3.1.92c-2.5,1.75-2.16,2.63-2.16,2.63a23.59,23.59,0,0,0,8.17,0s4.6.81,6.59-.27l.4.5,0,0h0a6.53,6.53,0,0,0-1.58.72c-.25.27,2.15.46,3.87,0s1.16-1.11,1.11-1.18h0v-1.13a5.31,5.31,0,0,0,.61,1.5c.54,1,7.87.82,13.21-1.08s-3.05-5.82-3.05-5.82l.31,0s2.38,1.27,4.25-.15a3.91,3.91,0,0,1-1.16,1.31c-.86.66,4.87,3.65,9.63,1.78A7.24,7.24,0,0,0,640,135.9l.16.84v.07a35.4,35.4,0,0,1-1.92,3.86c-1.29,2.26,2.07,2.6,4.46.32s-.21-5.22-.21-5.22v0l0,0,.05-.12.08-.16.1-.22.1-.22a39.06,39.06,0,0,1,1.92,5.59c.21,1.47,7.91,2.94,12.51,1.27a28.65,28.65,0,0,0,7.81-4.45h0l-.31,1.74a6.4,6.4,0,0,0-3.44,1.28c-1.68,1.26,1.82.54,5.8,1.83s3.31,2.42,10.07,2.29a14.51,14.51,0,0,1,4.1.38C681.44,145.24,681.53,145.57,681.62,145.92Z"/><path class="cls-7" d="M579.6,126.87a2.48,2.48,0,0,1-.31.39A2.64,2.64,0,0,1,579.6,126.87Z"/><path class="cls-8" d="M625.48,131c-2.09,4.5-10,4.08-10,4.08s-4.08,2.49-15.87,2.55c0,0,.39,2.12-4.38,3.18,1.19-.4,1.13-.72-2.17-.75-8.71-.06-17.76.55-31.14-2.43s-14-5.23-18.4-3.71-10.3-.69-10.3-.69,4.78.69,6.09.69.59-.69.59-.69l0-1.08c.05.36.36,1.17,2.22,1,2.38-.21,4.51-1.21,7.65-1.17s.83-3.43.83-3.43h0l0-.05.27-.27.05,0a5.47,5.47,0,0,0,1.68,3c1.32,1,5.63.46,6.49-.55s-3.1-3.71-5.71-3.45l0-.41s1.93-.2,5.43,1.73,11.44,1,15.48.7a7.2,7.2,0,0,0,4.92-2,3.09,3.09,0,0,0-.46,3.1c.88,1.75,8,1.43,13.8.44s4.6-2.94,4.6-2.94l1.27.25s.23,1.16,2.5,3,6.87.35,8.79,0c.84-.17,1.57-.28,2.13-.36-.92.18-2,.63-1.95,1.67.13,1.75,5.5,1.41,10.36-.43A14,14,0,0,1,625.48,131Z"/><path class="cls-9" d="M560.22,121.67c4.18,3.06,4.45,2.07,5.43,3.33s.24,1.77,2.57,2.83a3.22,3.22,0,0,1-1.7-3.08,3.77,3.77,0,0,1,1.7-2.87,15,15,0,0,0-3.11,1.53A7.92,7.92,0,0,1,560.22,121.67Z"/><path class="cls-10" d="M592.67,145.63a7.06,7.06,0,0,1-4.66,1.94,5.41,5.41,0,0,1-4-1.35s1,1.66,5.83,1.91a34,34,0,0,0,6.21,0,10.09,10.09,0,0,1-3.44-.18c-1.65-.43,1.72-.81,4.78-1.44s3.57-.43,4.13,0a1.41,1.41,0,0,0-.64-.58c-.44-.18.87-.19.87-.19l-.92-.13s-3.26.39-5.06.42A9.66,9.66,0,0,1,592.67,145.63Z"/><path class="cls-11" d="M617.93,135a18.36,18.36,0,0,1-2.44.09s-4.08,2.49-15.87,2.55a14,14,0,0,1-6.22-1.53c.32.13,3.65,1.35,9.65.76,6.33-.61,8.71-2,8.89-2.54s-1-.95-1.25-1.06a9.7,9.7,0,0,0,4.46.12c2.42-.51,6.34-1.77,6.58-1.84-.21.09-3.73,1.68-5.3,2.27S617.93,135,617.93,135Z"/><path class="cls-12" d="M556.87,136.43c-7.69-2.36-1.62-3.41,2.36-4.4s.2-1,4-1.65,13.1-1,15.26.4,0,3.83-3.31,3.84-4-.34-4-.34,5.54,2.14,9.32-1.16c0,0,2.45-.6,7.82-1.55,0,0-5.67.69-8-.31s-2.2-2.14-1.25-3.6l.94-1.47s0,2.59-7,2.69-10.93.34-13.79-.12.12.21-.09,1.78-3.88,1.33-5.85,1-1,.52-4.14.86a17.29,17.29,0,0,0-5.33,1.41,6.78,6.78,0,0,1,4.11-.2C550.42,134.22,553.59,135.6,556.87,136.43Z"/><path class="cls-13" d="M574.83,110.44a12.12,12.12,0,0,0-1.74.53,4.41,4.41,0,0,0-1,.9,19,19,0,0,0-1.44,1.9,18.16,18.16,0,0,0-2,5.29c-.27.91-.49,1.82-.74,2.74-.19.72-.57,1.31-.71,2.06-.3,1.64.72,4,2.36,4.63a5,5,0,0,0,2.94.24c1.07-.23,2.08-.64,3.13-.92A9.71,9.71,0,0,0,578,127a10.06,10.06,0,0,0,.91-.66,6,6,0,0,0,.8-.87,5.23,5.23,0,0,0,1.23-1.71,7.44,7.44,0,0,0,.41-2.13c0-.66.12-1.23.19-1.87,0-.35.17-.67.22-1,.06-.53,0-1,.14-1.56a6.81,6.81,0,0,0-.35-3.06,5.58,5.58,0,0,0-1.67-2.48A4.83,4.83,0,0,0,574.83,110.44Z"/><path class="cls-13" d="M569.57,106.59a4.07,4.07,0,0,0-2.24,3.25c0,1.57,1.67.8,2.56.49s2.33-.32,3.13-1.18a2.14,2.14,0,0,0,.59-1.13c-.05-.78-2.07-1.38-2.63-1.43Z"/><path class="cls-13" d="M567.34,116.52c-.38,1.34-.36,3.25-1.31,4.36a3.8,3.8,0,0,1-1.55,1,2.43,2.43,0,0,1-2,0,17.13,17.13,0,0,1-3.08-1.78,2.66,2.66,0,0,1-1.33-1.21,2.74,2.74,0,0,1,0-2.31,8.45,8.45,0,0,1,2.93-3.86,11.25,11.25,0,0,1,4.5-1.49c.83-.17,2.7.14,3,1.11C569.11,114.33,567,115.92,567.34,116.52Z"/><path class="cls-13" d="M609.69,120a35.81,35.81,0,0,1-2.58,2.79,15.68,15.68,0,0,1-2.53,2.29c-1.39.85-3,1.27-4.1,2.53a3.45,3.45,0,0,0-.68,1.51c-.15.57.29,1,.68,1.32a3.86,3.86,0,0,0,1.5.75,6.43,6.43,0,0,0,2.28.57c1.17,0,2.26-.33,3.41-.41.42,0,.77-.12,1.18-.18s.93,0,1.39,0a25.41,25.41,0,0,0,2.79-.72,6,6,0,0,0,3.25-1.9,6.23,6.23,0,0,0,1.92-4.59,5.36,5.36,0,0,0-1.42-3.54,4.32,4.32,0,0,0-1.57-1.06,5.84,5.84,0,0,0-1-.34,8.1,8.1,0,0,1-.86-.06,1.83,1.83,0,0,0-.65-.16,7.06,7.06,0,0,0-.92,0C610.78,118.88,610.35,119.61,609.69,120Z"/><path class="cls-13" d="M608.88,116.32c-.82-.63-.93-.84-1.81-.82a4.83,4.83,0,0,0-1.5.26,16.65,16.65,0,0,0-1.92.76c-.75.37-1.34,1-2.07,1.41a11.26,11.26,0,0,0-2.24,1.84c-1.14,1.17-2.63,1.94-3.38,3.44a1.28,1.28,0,0,0,0,1.52,2,2,0,0,0,1.15,1,6.66,6.66,0,0,0,4.17-.4,12.12,12.12,0,0,0,1.88-.71,17.93,17.93,0,0,0,1.82-1,9.72,9.72,0,0,0,1.84-1.84,18.87,18.87,0,0,0,1.56-2.22C609,118.42,610,117,608.88,116.32Z"/><path class="cls-14" d="M604.22,136c-2.62.39-5.13,1.37-7.75,1.78-1.12.18-2.27.33-3.4.45-1.62.17-3.23.56-4.85.76a22.57,22.57,0,0,1-5.32.21c-1.64-.18-3.3,0-4.93-.2a7.24,7.24,0,0,1-1.92-.35,5.09,5.09,0,0,1-1.39-.66c-.65-.69-.09-1.74.51-2.21a9.39,9.39,0,0,1,4.36-1.4c2.27-.39,4.57-.67,6.81-1.22,1.42-.35,2.83-.66,4.26-1,.72-.14,1.43-.32,2.16-.41s1.39,0,2.08-.09a28.58,28.58,0,0,1,6.6.1c1.16.13,2.5.1,3.4,1,.3.29.8.93.55,1.38-.15.26-.55.34-.79.42-1.28.43-2.58.74-3.83,1.24Z"/><path class="cls-14" d="M571.19,137a3.58,3.58,0,0,1-1.91.62c-.7-.05-1.42,0-2.13,0a7.69,7.69,0,0,1-3-.51c-.51-.21-1.55-.46-1.65-1.12s.91-1.05,1.46-1.17a18.25,18.25,0,0,1,4.36-.45,8.92,8.92,0,0,0,1.55,0,3.85,3.85,0,0,1,1.16-.18,1.83,1.83,0,0,1,1.17.67C572.51,135.44,571.72,135.55,571.19,137Z"/><path class="cls-15" d="M601,277.26c-2.41,10.67,4,17.11,12.26,16.42S625,289.56,625,289.56s-.1-5.23,1.46-7.81c0,0-1.88,9.66,5.77,12.62a10.69,10.69,0,0,1-6.94-2.92,15.29,15.29,0,0,1-9.68,7.26c-6.87,1.64-9.67-1.4-9.67-1.4S596.89,289,601,277.26Z"/><path class="cls-16" d="M513.24,168.09c7.13,1.61-2.64,8.43-2.64,8.43s9.31,20.35,0,29.1-23.92,5.44-23.92,5.44.54,13.66-10.28,16.92-15.67-1.18-19.8,0c-23.63,6.74-46.5-14.75-46.5-14.75,0,6.77-5.1,4.42-5.1,4.42-10,11-19.78,3.54-19.78,3.54-10.17,3.68-9.67-2.59-9.67-2.59-25.37,16.73-29.62-10.82-29.62-10.82-3.62,3.39-8.17-1-9.62-2.56a27.16,27.16,0,0,1,2.47,3.48v0c2.44,4.12,4.33,10.29-3.74,13.07-12.66,4.37-16.57,6.85-16.57,6.85-2.25,1.25-3.91-1.61-3.91-1.61s-6.68,7.59-10.36,0c-3.5-7.23-1.39-11.34-12.87-12.9h-.08c-.57-.08-1.16-.15-1.79-.21-4.29-.44-7.29,0-9.6,1a14.88,14.88,0,0,0-4.28,2.82h0c-2.34,2.12-4.24,4.6-7.51,6.27-7.28,3.73-7.21-1.61-7.21-1.61s-22.48,9.21-20.19-7.36a19.18,19.18,0,0,1,.91-3.84h0a10.74,10.74,0,0,1,7.5-7.31h0c5-1.36,10.24.57,10.24.57,6.54-6.44,9.83-4.91,11.47-1.84l0,0a19.12,19.12,0,0,1,1.63,7.33s-2.78,4.77,8.59,2.18c0,0,.38-4.71,3.9-5.07,2.82-.28,3.3,2.61,9,3h0a26.18,26.18,0,0,0,5.44-.31,20.52,20.52,0,0,0,5.09-1.33c5.51-2.31,4.67-6.15,4.67-6.15.76-5,2.94-.41,3.12,0a11.81,11.81,0,0,1,2.32-8.95c3.28-4,3.56,1.27,10.36,2.19s8.54-1.36,8.54-1.36c0-12.09,3.65-15.88,5.95-17.06h0a4.37,4.37,0,0,1,1.85-.54c-4.14-11.37,6-11,6-11-4.14-4.61,0-6.9,0-6.9s-20.64-11.72-15.18-32.52c4.83-18.43,17.5-17.21,17.5-17.21-.48-4.35,3.59-11.7,6.09-15.73l.35-.57c.09-.14.17-.27.25-.38a6.88,6.88,0,0,1,.4-.62c.06-.1.13-.19.18-.28a.34.34,0,0,0,.06-.09l.61-.9s-1.38-5.75,3.22-12a6.74,6.74,0,0,1,.63-.75c4.73-5,12.72.75,12.72.75s8.17-5.7,26.36-2.25,16,31,16,31,4-2.72,8.39-1.39,3.61,8.08,3.61,8.08a38.55,38.55,0,0,1,5.09-3.92,30,30,0,0,1,5.49-2.9l.16-.06.87-.32a13.08,13.08,0,0,1,8-.43c4,1.24,5.67,4.48,6.28,7.63v0a21.28,21.28,0,0,1,0,7.25h0c7.08-5.41,9.15,4.72,9.15,4.72s9.72-24.57,34.3-18.64c8.7,2.1,13.4,6.53,15.71,11.74.19.43.36.86.52,1.3a23.78,23.78,0,0,1,.76,2.62c1.17,5.24.51,10.88-.6,15.54h0a54.35,54.35,0,0,1-3.59,10.38s9.08-1.08,11.39,6.75S513.24,168.09,513.24,168.09Z"/><path class="cls-17" d="M514.8,122.75c-.9,1.33-1.57,2.15-1.57,2.15a20.14,20.14,0,0,1-4.69-1.27h0a18.82,18.82,0,0,1-5-2.93,15.06,15.06,0,0,1-4.36-5.86l0-.08a16.09,16.09,0,0,1-.73-2.16h0a.15.15,0,0,0,0-.07v0a.14.14,0,0,1,0-.07,20.45,20.45,0,0,1-.53-5.33s9.77-7.6,17.27-3.23a7.87,7.87,0,0,1,4.18,6.66h0C519.48,115,516.65,120,514.8,122.75Z"/><path class="cls-18" d="M358.07,100a11.46,11.46,0,0,1-1.18-8.69l.61-.9s-1.38-5.75,3.22-12a6.74,6.74,0,0,1,.63-.75c-3.41,8.68.64,11.33.64,11.33s.67-1.4,5.14-3.19C366.14,86.17,360.78,89.1,358.07,100Z"/><path class="cls-19" d="M454.37,121h0s-5.64,12.9-16.06,22.39c0,0-3.17,10.54-11.1,8.11,0,0-16.87,31.63-43.57,31.13s-31.54-24-31.54-24h-4.85s-20.64-11.72-15.18-32.52c4.83-18.43,17.5-17.21,17.5-17.21-.48-4.35,3.59-11.7,6.09-15.73-2.08,3.47-5.87,10.8-3.9,15.49,2.64,6.34,12.77,1.74,12.77,1.74a7.79,7.79,0,0,1,.16-6.54,12,12,0,0,0,3.64,10.51c4.72,4.22,12.72-.48,13.07-.68-.41.3-10.95,7.91-16.7-1.75,0,0,.06,2-10.76,1.92s-25.79,5.71-19.57,27.43,29.81,8.85,29.81,8.85-3.1-3-1.73-11.7c0,0-.76,14.29,19,14.54,0,0-7.82,2.12-13.77.94,0,0,7.32,15.12,25.28,11.38,24.33-5.06,24.1-19.18,24.1-19.18a20.58,20.58,0,0,0,0,7.44c.69,4.83,7.76-.69,8.28-14.85s-6-18.47-6-18.47a12.58,12.58,0,0,1-3.79,6.55c.09-.31,2-6.63,1-19.78,0,0,4-2.72,8.39-1.39s3.61,8.08,3.61,8.08a38.55,38.55,0,0,1,5.09-3.92,25.82,25.82,0,0,0-4.62,7.18c-4.94,10.73-2.49,16.4,2.12,20.89s24.36-9.65,23.32-24.13A21.28,21.28,0,0,1,454.37,121Z"/><path class="cls-20" d="M338.78,208.7c-.92-1.2-1.77-2.38-2.47-3.48A27.16,27.16,0,0,1,338.78,208.7Z"/><path class="cls-21" d="M482.67,138.3l-.67-2.2A16.71,16.71,0,0,1,482.67,138.3Z"/><path class="cls-22" d="M513.24,168.09c7.13,1.61-2.64,8.43-2.64,8.43s9.31,20.35,0,29.1-23.92,5.44-23.92,5.44.54,13.66-10.28,16.92-15.67-1.18-19.8,0c-23.31,6.65-45.88-14.17-46.49-14.74h0c0,6.77-5.1,4.42-5.1,4.42-10,11-19.78,3.54-19.78,3.54-10.17,3.68-9.67-2.59-9.67-2.59-25.37,16.73-29.62-10.82-29.62-10.82-3.22,3-7.17-.1-9-1.93l-.05,0v0a6.8,6.8,0,0,1-.54-.56,18.48,18.48,0,0,1-2.84-11.09c0-12.09,3.65-15.88,5.95-17.06-.21.34-5,8.23-.92,13.92a8.27,8.27,0,0,0,2.81,2.56c3.61,1.93,7.33-.25,7.33-.25.29,1.18.61,2.29.95,3.33l0,.08c4.54,13.75,13.2,15.56,20.33,14.21H370c.84-.16,1.67-.36,2.48-.59l.08,0,.93-.3,0,0a33.83,33.83,0,0,0,7.68-3.76l.11-.08.08,0c8.82,5.29,10.29-3,10.29-3s6,10.16,17,5.1a18.63,18.63,0,0,0,2.63-1.47l.17-.12.07-.05h0c7.79-5.48,6.1-14.46,6.1-14.46-5.76-2.76-4.84-6.9-4.84-6.9,2.44,7.34,11.33,3.11,11.94,2.81l-4.8,3s.46,14.85,18.3,13.12,23.6-10.92,21.51-19-.46-12.44-.46-12.44.25,19.57,24,13.81,23.18-29,18-31.86S486,153,486,153c-8.79,12.3-21.6,9.45-21.6,9.45s14.51-4.73,17.57-11.72c2-4.66,1.36-9.61.68-12.4L486,149.26c14.46,7.18,18.91-1.1,18.91-1.1,9.91-11.65,3.6-22,3.6-22C493.7,124.71,496,114.27,496,114.27s0,8.93,11.15,8.73a9.59,9.59,0,0,0,6.92-2.87c4.49,12.47-3.44,28.55-3.44,28.55s9.08-1.08,11.39,6.75S513.24,168.09,513.24,168.09Z"/><path class="cls-23" d="M305.3,203.83a3.72,3.72,0,0,1-.37.75C305.41,202.33,306,201.94,305.3,203.83Z"/><path class="cls-24" d="M335.05,221.79c-12.66,4.37-16.57,6.85-16.57,6.85-2.25,1.25-3.91-1.61-3.91-1.61s-6.68,7.59-10.36,0c-3.5-7.23-1.39-11.34-12.87-12.9,8.28.7,3-3.75,2.59-4.06a26.18,26.18,0,0,0,5.44-.31,20.52,20.52,0,0,0,5.09-1.33c-.14,2.53-3,5.35-2.21,9.27,2.55,12.19,12,7.54,12.89,4.26s-3.45-6.73-3.45-6.73,1-.17,4.32,3.45,8.63-5.35,8.63-5.35.86,2.42-4.5,7.42,3.54,4.83,13.28.87c9.37-3.82,5.5-12.47,5.37-12.9C341.23,212.84,343.12,219,335.05,221.79Z"/><path class="cls-25" d="M281,212.17l-1.16,2.76c-5,2.11-6.84,6.56-11.81,9.1-7.28,3.73-7.21-1.61-7.21-1.61s-22.48,9.21-20.19-7.36c1-7.17,4.62-10.12,8.41-11.16h0s-16,12.19,1.83,16.25,22.55-7.48,20.5-9.07-6-2.38-6-2.38,8.27.49,5.4-6a19.12,19.12,0,0,1,1.63,7.33S269.66,214.76,281,212.17Z"/><path class="cls-26" d="M314.94,192.87c-2.23,3.86-2.1,7.82,2.1,9.79a8.11,8.11,0,0,0,7.6-.27s-1.67,2.08-7.08,1.44-1.38,7.31,3.74,6.79,5.12-6,5.12-6,.55,7.22-5.32,7.45-8.85-9.78-8.85-9.78S311.24,196.42,314.94,192.87Z"/><path class="cls-27" d="M513.76,200.64c-8.12,12.34-19.86,11.42-28.26,8s-7.6-11.51,3.1-19.8,14.08-14.57,22-12.29c0,0-.2-3.12-5.36-1.87s-.69-6.9-.69-6.9.32,9.45-15.43,16.85-25.44-1.37-25.44-1.37,1.33,2-2.39,5.41c0,0-1.35,9.73-12.51,15.6s-22,.34-22,.34a24.7,24.7,0,0,0,6.91,4.49c4.83,2.3-3.91,12.82-23.6,4.16,0,0,12.7,11.11,27.36,14.87-14.81-8,19.37-7.4,19.6-4.41s-4.62,5.19-4.62,5.19,4.4-1.28,6-1.1,4.39.75,4.39.75a31,31,0,0,0,15.53-1.32c9-3.39,8.31-16.15,8.31-16.15S506.79,216.15,513.76,200.64Z"/><path class="cls-28" d="M360.78,182.64c-.06,0-.24-.08-.49-.19A1.09,1.09,0,0,1,360.78,182.64Z"/><path class="cls-29" d="M409.88,208c-1.68,1.67-3.53,4.29.22,5.25,0,6.77-5.1,4.42-5.1,4.42-10,11-19.78,3.54-19.78,3.54-10.17,3.68-9.67-2.59-9.67-2.59-25.37,16.73-29.62-10.82-29.62-10.82-3.22,3-7.17-.1-9-1.93l-.05,0c.31.21,3.82,2.58,7.2.54s3.62-11,.86-10.89a3.62,3.62,0,0,1-3.61-1.9c5.2,2.06,6.54-.59,7-4.39s3.86-3.82,6.47-6.51a13.06,13.06,0,0,0,3.1-4.26c-.64,2.37,1.43,3.61,2.43,4.06-.74-.14-2.45-.11-6,1.44-5.26,2.33-5.69,9.41-5.69,9.41l.95,3.33,0,.08s-1.66-.82-2.44,3.33.35,19.85,12.6,22.18,20.63-12.95,17-11.95a20,20,0,0,1-6.84.65H370a19,19,0,0,0,2.48-.59l.08,0,.93-.3,0,0a42.45,42.45,0,0,0,7.68-3.76l.11-.08.08,0s-1.42,6.3,4.62,8.63,14-.87,10.7-4.15a33.82,33.82,0,0,1-4.38-5.21c.72,1,3.52,4.38,9.56,4.52A14,14,0,0,0,409.88,208Z"/><path class="cls-30" d="M409.88,208c.6-.59,1.16-1,1.47-1.3l.17-.12.07-.05A6.93,6.93,0,0,1,409.88,208Z"/><path class="cls-31" d="M476,110.47c-10.73,11.72-11.37,13.89-9.3,17.28s9.3,1.32,9.3,1.32a8.85,8.85,0,0,1,11.08-4.17s-8.54-2.06-10.66,6.84,0,11.14,0,11.14-3.16-2-2.29-12.49c0,0-7.43,1.27-9.67-1.49s-1.2-4-1.2-4S468.75,115.17,476,110.47Z"/><path class="cls-32" d="M514.8,122.75c1.17,5.24.51,10.88-.6,15.54h0s.11-10.56-5.65-14.67h0a23.51,23.51,0,0,0-5-2.93c-2.77-1-4.94-.52-8.11,1.59-4.83,3.23-7,2.62-7,2.62a10.24,10.24,0,0,0,5.73-2.47c3.11-2.46,3.33-5.05,4.18-5.71s.23-3.45.09-4.14h0c.12.4.43,1.41.73,2.16l0,.08.12.29s3.56,7.39,11.67,4.8a14.83,14.83,0,0,0,2.59-1.09,10.53,10.53,0,0,0,5.72-8.36l0,0h0C519.48,115,516.65,120,514.8,122.75Z"/><path class="cls-33" d="M514.25,173.31c-6.18,1.09-11,.71-9.76-6.48s1.41-9.22.69-12.55,2-4.17,3.67-12.24c0,0-3,7.53-7.59,9.36s-12.13-.77-12.13-.77l-2.66,2.05s11.26-.45,14.94,2,3.7,11.37.83,17.47-6.29,8.29-6.29,8.29a49,49,0,0,0,6.81-5c2.13-2.13,7.84,1.12,7.84,1.12A10.31,10.31,0,0,0,514.25,173.31Z"/><path class="cls-34" d="M275.57,217.76c-2.34,2.12-4.24,4.6-7.51,6.27-7.28,3.73-7.21-1.61-7.21-1.61s-22.48,9.21-20.19-7.36a19.18,19.18,0,0,1,.91-3.84h0s-1.31,4.94,6.4,8.74a17.62,17.62,0,0,0,14.27.68,1.64,1.64,0,0,0-.91,1.62c.17,1.15,3.51,2.18,7.42-.46s1.26-5.44,1.26-5.44a7.89,7.89,0,0,0,1.52-2.52,7.27,7.27,0,0,0-.18,3.5C271.78,219.18,275.31,217.86,275.57,217.76Z"/><path class="cls-35" d="M421.84,153.72c4.19-4.49,4-16.36,4.61-18.95s2.47,4.37,7.48,4.72,10.93-5.87,10.93-5.87-3.85,6.44-9.95,6.9-8.87,8.35-8.23,9.44,4.11,1.79,4.11,1.79a5.54,5.54,0,0,1-3.88-.23s-10.59,17.95-23.72,24.63c0,0,9.8-6.86,11.92-12.72s4-4.55-14.45,3.17-25.75-4.53-25.75-4.53,6.18,7.75,22.07,2.34S415.76,151,415.76,151s.56,5.06,3.2,4.6S421.84,153.72,421.84,153.72Z"/><path class="cls-36" d="M347.24,158.66s3.93-.7,4.79-.24,1,5.1,4.32,9.92c0,0-3.63-7.21-1.84-10.84s9.66-7.33,9.66-7.33-8.73,4.48-17.31,3.55S334,144.63,334,144.63,337.33,152.27,347.24,158.66Z"/><path class="cls-37" d="M479.91,200.35c-1.09,8,6.77,10.71,6.77,10.71l-.21.85a10.24,10.24,0,0,1-5.27,6.52c-4.22,1.92,2.91-5.28-2.27-11.92a16.55,16.55,0,0,0-12.08-6.65s.92-3.45,6.44-.92,5.11-4.06,12.86-8.07A15.07,15.07,0,0,0,479.91,200.35Z"/><path class="cls-38" d="M416.53,103.75s.3,11.56,0,16.92a12.5,12.5,0,0,0,2.09-9c-.75-5.4,1.93-6.24,1.93-6.24l-3.43,1.29Z"/><path class="cls-14" d="M501.61,187.09c-1.72,1.38-3.38,2.77-5.14,4.1a78.62,78.62,0,0,0-7.67,6.31,15.87,15.87,0,0,0-3.91,7.21c-.27,1.12-.47,3.59.53,4.52a6.66,6.66,0,0,0,3.57,1.36,26.12,26.12,0,0,0,4.68-.1c3.34-.49,6.67-.21,9.87-1.46a11.81,11.81,0,0,0,4.13-2.43c1.06-1,1.91-2.23,2.93-3.29a11,11,0,0,0,2.52-4.15,7.05,7.05,0,0,0-.18-3.86,27.29,27.29,0,0,0-1.3-4.05,18,18,0,0,0-1.72-3.75,8.15,8.15,0,0,0-3.16-2.3C504.77,184.34,503.09,186,501.61,187.09Z"/><path class="cls-14" d="M504.72,178.11a14,14,0,0,0-4.11,2.93c-.6.63-1.82,1.65-1.79,2.62.05,1.7,3.18-.32,3.95-.64,1.11-.47,2.71-.89,3.34-2,.84-1.44-.22-2.53-.36-4Z"/><path class="cls-14" d="M517.84,153.93c-3.63,3.43-8.77,6.25-9.61,11.69-.55,3.52,3.63,1.89,5.14.66,2.23-1.82,5.23-2.24,7.26-4.39a5.2,5.2,0,0,0,1-3.73C521.63,156.17,520.29,155.09,517.84,153.93Z"/><path class="cls-14" d="M459.83,198.48c-2.27,1.19-4.25,2.58-6.39,4a33,33,0,0,0-6.24,4.85c-.52.53-1.78,1.69-.66,2.21.5.23,1.39-.11,1.86-.22a19.43,19.43,0,0,1,3.51-.82,8.82,8.82,0,0,1,4.8.71,18.28,18.28,0,0,0,5.86,2,7.62,7.62,0,0,0,6.18-2c1.07-.94,2-2.56,1.63-4a5.73,5.73,0,0,0-2.77-3.11c-.6-.37-3.06-1.28-3-2.25.07-1.18,2.54-1.41,3.26-1.41,1.66,0,3.25,1.45,4.95,1.07.67-.15,1.06-.66,1.6-1s1.11-.66,1.63-1.05c1.13-.88,3-1.87,3.42-3.35a4.61,4.61,0,0,0-.71-3.63,5.33,5.33,0,0,0-3.7-1.92c-1.34-.23-2.55.57-3.76,1a23.87,23.87,0,0,0-3.55,1.19c-1.39.74-2.8,1.58-4.13,2.42a13.56,13.56,0,0,0-3.28,2.76C458.89,197.58,457.52,199.6,459.83,198.48Z"/><path class="cls-14" d="M485.73,187.78a14.41,14.41,0,0,0-3.72,2,11.26,11.26,0,0,0-1.5,1.12c-.91,1.12.36,1.18,1.24,1.05a6.92,6.92,0,0,0,2.79-1.18c.46-.35,1.37-1.29,1.19-1.94Z"/><path class="cls-14" d="M418,204.35a35.25,35.25,0,0,0-5.45,3.53,20.89,20.89,0,0,0-2.34,2.17c-.31.33-.84.73-.89,1.23-.15,1.7,5.36-.15,6.27-.38,1.72-.44,4.05-.52,5.21-2.13,1.32-1.83.35-4.67-1.42-5.8Z"/><path class="cls-14" d="M401.12,211.26a24.59,24.59,0,0,1-1.87,2.07c-.3.25-.73.4-1,.67-.88.76-1.77,1.49-2.64,2.26-1.6,1.4-3.57,2.53-4.62,4.47-.57,1-.83,2,.47,2.29,1.7.39,3.95-.59,5.54-1.06a22.45,22.45,0,0,0,3.82-1.25,7.06,7.06,0,0,0,2.77-2.55A4.69,4.69,0,0,0,401.12,211.26Z"/><path class="cls-14" d="M359.68,212.29c-1.32-.7-1.41-1-2.55-.65a7,7,0,0,0-2.25,1.16,3.59,3.59,0,0,0-1.43,2.94,3.91,3.91,0,0,0,1.21,3.26,6,6,0,0,0,3.3,1.32,26.55,26.55,0,0,0,3.45.24c1.38.09,2.38.5,3.79.21,2.89-.61,6.53-1.18,8.46-3.61a4,4,0,0,0,1.23-2.72c0-.65.14-1.39-.26-1.9-1-1.26-4-1.11-5.37-1a21.34,21.34,0,0,1-2.68.37h-2.41A20,20,0,0,0,359.68,212.29Z"/><path class="cls-14" d="M386.27,179.49a18.91,18.91,0,0,1,1.42-3.27,11.12,11.12,0,0,1,2.45-2.44,47.31,47.31,0,0,1,6.08-4.25c1.6-.9,3.36-1.35,4.94-2.32,1.93-1.19,3.6-2.72,5.49-4a32,32,0,0,1,6.14-3.46,7.45,7.45,0,0,1,3.89-.68c.86.14.72.48.69,1.37,0,1.24-1,2.39-1.57,3.48a13.12,13.12,0,0,1-2.58,3.27,14.21,14.21,0,0,0-1.83,1.89,11.71,11.71,0,0,1-1.64,2A18.31,18.31,0,0,1,406,174c-1.46.79-2.72,2-4.16,2.79C397.72,179.12,393.07,180.52,386.27,179.49Z"/><path class="cls-13" d="M438.19,108.7c-2.3,0-3.2-.24-5,.81a11.11,11.11,0,0,0-2.31,1.6,17,17,0,0,0-3,4.38,22.63,22.63,0,0,0-2.18,10.37c0,2.86,1,6.38,3.67,7.83,3,1.6,6.39.44,9.33-.7,1.36-.54,2.94-.77,4.06-1.72,1.55-1.32,3.61-2.83,4.59-4.6,1.95-3.58,4-7.23,4.14-11.41,0-.64,0-1.31,0-2a3.92,3.92,0,0,0-.82-2.29c-.51-.9-.62-1.56-1.49-2.22a10.26,10.26,0,0,0-1.95-1.14,13,13,0,0,0-3.48-.89.67.67,0,0,0-.5-.42,3.18,3.18,0,0,0-1.37.49C440.26,107.52,438.68,108,438.19,108.7Z"/><path class="cls-13" d="M457.06,121.13a18,18,0,0,0-3,2.49c-.63.73-1.22,1.53-1.82,2.28-.9,1.14-2.28,3.32-2.08,4.91.15,1.27.87,1.49,2,1.26,1.27-.26,2.55-.57,3.81-.8a5.35,5.35,0,0,0,4.72-4.64,4.23,4.23,0,0,0-.22-2.74c-.52-1.07-2.15-1.79-2.43-2.76Z"/><path class="cls-13" d="M506.79,104.09c-3.15.48-7.37,2.22-9.15,5.24a8,8,0,0,0-.81,3.48c-.18,1.92-.29,3.91-1.53,5.49s-3.64,2.76-5.51,3.75-4.4,1.29-6.5,1.74c-2.34.51-4.65,1.06-7,1.59-1.78.4-3.95,1.89-5.79,1.78s-4-1.46-3.75-3.45c.32-2.89,2.51-4.92,4.37-7,2.59-2.84,5.79-4.56,9.32-6.11,2.72-1.18,6.18-2.82,9.21-2.42,1.52.19,3,.33,4.1,1.49.89,1,1.56,2.1,2.41,3.08a7.48,7.48,0,0,0,2.47,1.88c4.3,2.1,10.8,3.24,14.77,0,1.55-1.27,2.48-2.23,2.61-4.31.2-3.27-1.73-5-4.63-6.24Z"/><path class="cls-13" d="M395.37,78.31a37.6,37.6,0,0,0-17,1.47,33.85,33.85,0,0,0-7.63,3.88,6.83,6.83,0,0,0-2.5,2.48c-.69,1.13-1.74,1.9-2.34,3.11-1,2-.89,4-.89,6.11s-.26,4.23.23,6.2c.84,3.43-.48,7,1.6,10.15,2.68,4.09,9,1.14,12.63.44a39.83,39.83,0,0,1,8-.69,65.9,65.9,0,0,0,8.55-.23c2.53-.34,5.28-.27,7.58-1.6a15.32,15.32,0,0,0,5.16-4.44c2.26-3.28,2.52-6.86,2.3-10.75-.23-4.23-2.62-8.73-5.33-11.75a16.16,16.16,0,0,0-3.41-3.45C400.22,77.93,397.37,76.29,395.37,78.31Z"/><path class="cls-13" d="M385.24,114.68a28.79,28.79,0,0,0-8.06,3.71c-3.05,2.12-5.43,5.26-7.56,8.23a22.85,22.85,0,0,0-3.4,6.46c-.34,1.2-.43,2.49-.69,3.72a7,7,0,0,0,.49,3.44,12.18,12.18,0,0,0,3.09,5.77A19.58,19.58,0,0,0,374,149.7a14.1,14.1,0,0,0,5.83.9c3,0,6,.46,9,.46a73,73,0,0,0,9.35-.5,15.61,15.61,0,0,0,6.95-2.52,34,34,0,0,0,5.82-6.22,9.12,9.12,0,0,0,2-2.68,14.54,14.54,0,0,0,.91-3.28,49.87,49.87,0,0,1,.66-5.56,18.86,18.86,0,0,0,.21-3.19c.1-1.65.56-3.08.51-4.79-.12-3.78-2-8.94-5.9-10.31s-8-.17-11.76.36c-1.91.27-3.8.92-5.72,1.29-1,.2-2,.27-3,.46C387.2,114.42,386,114.63,385.24,114.68Z"/><path class="cls-13" d="M417.93,123.43a30.39,30.39,0,0,0-4.63,18c.19,3.37,3.62,7.87,7.39,6.8,1.25-.35,2.21-2,2.77-3.1.84-1.62,1-3.75,1.43-5.55a21.84,21.84,0,0,0,.89-6.54C425.49,129,423.48,126,417.93,123.43Z"/><path class="cls-13" d="M423,106.86c-2,1.11-4.57,2.22-4.65,4.93a3,3,0,0,0,2.58,3.15c.89.07.88,0,1.61-.71.56-.55,1.37-1,1.87-1.59,1.51-1.72.84-4,0-5.78Z"/><path class="cls-13" d="M361.3,118.37c-1.79-.85-3.53-1.88-5.5-1.86s-4,0-6,0c-3.4,0-6.79,2.37-9.19,4.61a17.49,17.49,0,0,0-4.17,5.05,22.53,22.53,0,0,0-1.73,6.47c-.86,5.17-.9,11.54,4.78,13.8a27.73,27.73,0,0,0,10.4,2.3c1.79,0,3.74.29,5.46-.31a7,7,0,0,0,3.47-3.37c2.3-3.91,2.66-9.08,3.54-13.49a48.86,48.86,0,0,0,1.3-6.41C363.84,121.83,362.28,120,361.3,118.37Z"/><path class="cls-13" d="M429.44,154.74a19.81,19.81,0,0,0-6.22,5.53c-1.63,2-3.66,3.6-5.08,5.75-.78,1.18-1.61,2.29-2.42,3.44a17.45,17.45,0,0,0-1.47,3.16c-.86,1.91-1.75,3.19-1.87,5.4-.15,2.82,0,6.74,3.34,7.59a21.62,21.62,0,0,0,10.5-.48c2-.51,4-.59,5.94-1a17.36,17.36,0,0,0,6.48-3,33.7,33.7,0,0,0,6.45-6.23c1.76-2.37,4.41-4.88,5-7.89a13.28,13.28,0,0,0-.35-6.42c-.82-2.13-2.91-3.77-4.79-5a12.5,12.5,0,0,0-6.25-1.75A21,21,0,0,0,431.4,155C429.11,155.58,427.39,157,429.44,154.74Z"/><path class="cls-13" d="M443.46,141.45a7.84,7.84,0,0,0-3.26,2.26,8.23,8.23,0,0,0-1.56,2.56c-.52,1.5-.56,3.29.93,4.22.67.41,1.53.51,2.21.9.5.29,1,.65,1.48.89a6.74,6.74,0,0,0,4.84.4,8.27,8.27,0,0,0,3.07-1.56,9.66,9.66,0,0,0,1.85-2.68,7.46,7.46,0,0,0,.51-5.59,5.17,5.17,0,0,0-4.17-3.7,7,7,0,0,0-2.87.2,9.66,9.66,0,0,0-2.39.88C443,140.94,442.19,142,443.46,141.45Z"/><path class="cls-13" d="M480.09,138.17a35.09,35.09,0,0,1-2.27,4.6c-.71,1-1.94,1.72-2.7,2.74-1.13,1.54-3.07,6,.17,6.45,1,.16,2.5-.79,3.44-1.24A8.5,8.5,0,0,0,481.2,149a6.61,6.61,0,0,0,1.67-2.87c.09-.61.34-1.75.37-2.33a4.46,4.46,0,0,0-.85-2.41Z"/><path class="cls-13" d="M513.24,152c-1.37.41-2.65.48-3.48,1.44-.51.6-.9,1.37-1.36,2-.76,1.07-2.37,3-2.13,4.42.34,2,4.32,1.47,5.69,1.23,2.17-.38,4.9-1.31,6.36-3.1a4.72,4.72,0,0,0,.94-3.23c-.17-2-1.88-3.28-2.34-5.07Z"/><path class="cls-13" d="M360.38,179.14c-1.17.73-2.34,1.56-3.44,2.31-.9.61-1.94,1-2.79,1.62a14.64,14.64,0,0,0-4.4,5.7c-.54,1.58-1.16,3.31-.79,5a27.75,27.75,0,0,0,1.86,5.07,16,16,0,0,0,11.73,9.78c1.44.3,2.92.75,4.37.94a17.24,17.24,0,0,0,5.53-.59c2.58-.49,4.64-2.12,6.78-3.57,1.95-1.32,3.36-3.48,4.82-5.31,1.06-1.33,2.46-3,2.6-4.72a12.31,12.31,0,0,0-.61-5.05c-.5-1.48-.92-3.07-2.16-4a14.32,14.32,0,0,0-4.33-2.49,28.45,28.45,0,0,0-5.48-.95c-1.9-.21-3.75-.76-5.64-.94C365.15,181.6,362.81,178.54,360.38,179.14Z"/><path class="cls-13" d="M345.64,173.62c-3.18,2.37-7.21,5.76-6.94,10.24a7,7,0,0,0,1.39,3.94c.63.61,2.28,1.65,3.25,1.51.73-.1.91-.51,1.36-1.05a26.16,26.16,0,0,1,2.11-2,21,21,0,0,0,3-3.81,9.51,9.51,0,0,0,1.37-3.89,4.56,4.56,0,0,0-2.31-4.51Z"/><path class="cls-13" d="M395.83,200.78c0,2.62-.6,4.54,1.91,5.89,1.5.81,3.79.67,5.45.58a17.09,17.09,0,0,0,5.78-1.67,5.15,5.15,0,0,0,2.86-3.3c.48-1.25.84-2.11,0-3.34-1-1.45-2.15-1.82-3.71-2.42a10.73,10.73,0,0,0-4-.8,5.82,5.82,0,0,0-2.24.13c-2.14.81-3.61,3.07-4.66,4.93Z"/><path class="cls-13" d="M456.14,162.11a15,15,0,0,0-1.5,3.41,4.79,4.79,0,0,0,2.49,1.1c1.19.26,2-.19,3.18-.38.55-.09,1.24.16,1.63-.43,1-1.46-2.84-3.39-3.95-3.24Z"/><path class="cls-13" d="M431.74,144.15c-1.44,1.07-3.43,2.07-3.63,4.07a5.81,5.81,0,0,0,4.56-1.08c.75-.47,1.2-.55,1.39-1.36a2.29,2.29,0,0,0-.48-2.09Z"/><path class="cls-13" d="M471.38,163.35a13.65,13.65,0,0,0-4.08,1.92,20.11,20.11,0,0,0-2.05,2.18c-1.46,1.51-1.5,2.43-1.62,4.47-.06,1-.41,2-.44,3a7.29,7.29,0,0,0,.32,2.23,6.59,6.59,0,0,0,2.15,3.38c1.16,1.14,2.77,1.29,4.19,2s3,2,4.69,2.37c3.88,1,8.26,0,11.82-1.8,2.71-1.37,6.1-2.6,7.77-5.25.8-1.25.86-2.61,1.49-3.91a21.15,21.15,0,0,1,2.35-3.47,13.57,13.57,0,0,0,2.16-3.89,8.56,8.56,0,0,0,.5-4.92,7.94,7.94,0,0,0-4.94-5.93c-1.86-.66-3.95-.11-5.74.45a40.57,40.57,0,0,0-8.29,4.06c-2,1.21-3.8,3.08-6.24,3.45C472.59,164.17,470,163.4,471.38,163.35Z"/><path class="cls-13" d="M451.54,170.39c-1.35,1.62-2.71,3.13-4.14,4.61s-2.41,2.82-3.69,4.16c-3,3.09-7.21,4-10.61,6.54a12.66,12.66,0,0,0-5.47,9.1,18.53,18.53,0,0,0,0,5.31,6.4,6.4,0,0,0,2.72,3.34c3.4,2,8-.9,11.57-.83,2,0,3.91-.46,5.95-.45,2.22,0,4.25.14,6.17-1.19a15.53,15.53,0,0,0,6.14-7.89c1.1-3.28.36-6.57-.56-9.81-.78-2.76-1.28-5.65-3-8-.23-.31-.59-.51-.81-.82s-.19-.73-.55-1.07c-.55-.52-1.56-.64-2.16-1.12C452.76,172.73,452.4,173.19,451.54,170.39Z"/><path class="cls-13" d="M264.75,201.06a5.67,5.67,0,0,0-1.69.59c-.41.31-.74.74-1.15,1.06a15,15,0,0,0-2.28,2c-.29.35-.81,1.19-.54,1.67.15.26.71.34,1,.42a10,10,0,0,0,1.55.23c.6.1,1.21.07,1.81.19a4.37,4.37,0,0,0,1.8,0,8.25,8.25,0,0,0,3.78-1.71,2.29,2.29,0,0,0,.85-1.06,2.63,2.63,0,0,0,.11-1.3C269.52,201.66,268.08,201.23,264.75,201.06Z"/><path class="cls-13" d="M257.74,205.22a10.07,10.07,0,0,0-1.81-.8c-.7-.18-1.46-.36-2.17-.49a6.76,6.76,0,0,0-3.84.57c-.44.23-.87.51-1.3.76a9.23,9.23,0,0,0-2.07,1.32,6.62,6.62,0,0,0-1.65,3.19c-.46,2.38-1.15,4.6.33,6.78s4.46,1.95,6.83,1.94c1.57,0,3.12.25,4.69.2a11.23,11.23,0,0,0,4.78-1.34c1.26-.62,2.87-1.33,3.43-2.75.42-1-.41-2.26-1.19-2.94a11.76,11.76,0,0,0-3-2.09,11.75,11.75,0,0,1-3-1.51,1.18,1.18,0,0,1-.57-1.36C257.36,206,257.83,205.39,257.74,205.22Z"/><path class="cls-13" d="M284.65,207.31a3.66,3.66,0,0,0-2.46,1.37,3.3,3.3,0,0,0-1.15,2c-.05,1.34,2.32.7,3,.61s1.59-.32,2.39-.38a3.18,3.18,0,0,0,2-.76c1.61-1.4-.91-2.61-2.1-3Z"/><path class="cls-13" d="M317.05,192.15a3.2,3.2,0,0,0-1.7.93,8.79,8.79,0,0,0-1,1.33,8,8,0,0,0-.76,3c-.15,1.79,1.4,3.3,2.85,4a16.29,16.29,0,0,0,4.7,1.05,5.61,5.61,0,0,0,2.68-.57,13,13,0,0,0,3-1.37c1.22-.84,2.26-2.39.94-3.62a5.57,5.57,0,0,0-1.95-.79,10.17,10.17,0,0,1-1.85-.81c-.54-.34-1.11-.61-1.65-.94-.39-.23-.68-.57-1.09-.77s-.7-.26-1-.46c-.75-.44-1.45-.92-2.23-1.29a6.56,6.56,0,0,0-.9-.49C316.63,191.32,316.37,191.65,317.05,192.15Z"/><path class="cls-13" d="M317.24,204.28c-.9.18-1.1.07-1.37.79a7.55,7.55,0,0,0-.49,1.33,3,3,0,0,0,1.47,2.91c1.1.58,2.21.38,3.38.45.48,0,.93.17,1.41.2a5.72,5.72,0,0,0,1.34.17,3.66,3.66,0,0,0,1-.72,3,3,0,0,0,.76-1.35,2.25,2.25,0,0,0-.38-2.36,5.12,5.12,0,0,0-3-2c-.56-.13-1.16-.2-1.73-.3A3.52,3.52,0,0,0,317.24,204.28Z"/><path class="cls-13" d="M327.28,214.89a3.06,3.06,0,0,0-1.87.73c-.43.41-.85.79-1.31,1.16a12.87,12.87,0,0,0-2.27,2.61c-.66,1-2.37,2.94-.44,3.51a6.25,6.25,0,0,0,3.37-.24c1.32-.37,2.6-.47,3.94-.71.53-.09,1-.26,1.57-.39.69-.17,1.44-.17,2.12-.4a10.18,10.18,0,0,0,1.8-.92,12.69,12.69,0,0,0,2.12-1.22,5.82,5.82,0,0,0,1.55-3.28,9.79,9.79,0,0,0,0-3.66,4.67,4.67,0,0,0-1.12-2.71,3.42,3.42,0,0,0-2.53-.53,7.9,7.9,0,0,0-4.47,2.19c-.36.31-.7.71-1.08,1s-.68.31-1,.62C326.51,213.68,325.52,214.74,327.28,214.89Z"/><path class="cls-13" d="M307.2,213.75a2.6,2.6,0,0,0-1.41-.48c-.31.6-.9,1-1.22,1.6a9.65,9.65,0,0,0-.84,2.82,8.09,8.09,0,0,0,1.19,5.62c1.46,2.23,4.65,2.49,6.78,1.1a6.51,6.51,0,0,0,2.32-2.84,3.76,3.76,0,0,0,.58-1.94,6.93,6.93,0,0,0-.76-2.14,8.54,8.54,0,0,0-3.14-3.34C309.67,213.48,308.65,212.79,307.2,213.75Z"/><path class="cls-13" d="M349.64,166.19a5.7,5.7,0,0,0-4.18-.58A9.55,9.55,0,0,0,341.9,168a6,6,0,0,0-1.53,3.27c-.11.89-.13,2.37.64,2.94s1.77-.26,2.51-.67c1.24-.69,2.47-1.34,3.67-2.09a12.27,12.27,0,0,0,1.55-1.16,4.41,4.41,0,0,0,1.13-1.73,2.43,2.43,0,0,0,.32-1.45C350.1,166.33,350,165.71,349.64,166.19Z"/><path class="cls-13" d="M366.12,77.14a5.45,5.45,0,0,0-1.4-1,3.75,3.75,0,0,1-1.29.88,7.48,7.48,0,0,0-2.05,1.66,7,7,0,0,0-1.33,5.13,6.25,6.25,0,0,0,.4,2,3.45,3.45,0,0,0,1.12,1.49c1.31.65,2.76-.93,3.7-1.59a18.86,18.86,0,0,1,3.56-2.11,4.65,4.65,0,0,0,2.6-2.17A4.3,4.3,0,0,0,372,79.6a4,4,0,0,0-.92-2C370.19,76.27,368.18,75.82,366.12,77.14Z"/><path class="cls-39" d="M520.34,302.56s15.5,4.91,28.43-3.79a34.56,34.56,0,0,0,7.33-7.68c12.47-16.59,27.42-50.38,27.42-50.38,6.37-2.93,34.94-23,34.94-23l.31-.78a6.93,6.93,0,0,0,.41-2.43,3.78,3.78,0,0,0-2.81-3.57l-.8.25c-5.44,1.7-36.81,11.63-41.93,15.16a3.34,3.34,0,0,0-.34.25c-4.24,3.59-28,35.84-30.41,37.47-1.51,1-6,4.93-9.29,7.83L530,275.12Z"/><path class="cls-40" d="M533.6,271.9l22.5,19.19c12.47-16.59,27.42-50.38,27.42-50.38,6.37-2.93,34.94-23,34.94-23l.31-.78a1.72,1.72,0,0,0,.29.11c1.64.44,4.92-2,6.38-2.26,1.15-.24-.3-8.2-4.19-14.21a10.32,10.32,0,0,0-.6,3.81c.19,4.22-1.47,10.12-1.47,10.12l-1.8,1.14h0c-7,4.42-32.24,20.15-37.48,21.37,0,0,1.24-11.14-6.25-10.67a3.34,3.34,0,0,0-.34.25c-4.24,3.59-28,35.84-30.41,37.47C541.38,265.07,536.86,269,533.6,271.9Z"/><path class="cls-41" d="M481,262.14c0,2.65.2,4.82.67,5.75l.09.15c1.84,3,9-3.36,9-3.36s.09-3.27.19-7.16c.12-4.2.26-9.14.35-11.48a13.11,13.11,0,0,0-1.34-5.74,0,0,0,0,0,0,0A19.44,19.44,0,0,0,488,237l-3.27,4.3L482,245l0,.3c-.12,1.14-.54,5.48-.8,10.08-.1,1.82-.17,3.68-.19,5.4C481,261.22,481,261.69,481,262.14Z"/><path class="cls-41" d="M475.52,219.39s.08.27.24.75c.8,2.48,3.23,10.37,3.18,13.59-.06,3.86,2.78,10.48,2.78,10.48a2.12,2.12,0,0,0,.23,1c.38.73,1.4,1.4,4.1.37.22-.09.43-.18.62-.28,3.87-1.82,3.23-5,3.23-5a.08.08,0,0,0,0,0,0,0,0,0,0,0,0c-.21-.83-2.76-10.45-4.52-13.43s-7-10.64-7-10.64Z"/><path class="cls-42" d="M471.45,212.59c-.17-.26-2.62-4-2-3.9s2.47,2.38,2.47,2.38l-.31-1.11s.75-.15,1,.36a16,16,0,0,0,3.59,3.94C477.29,214.9,472.63,214.31,471.45,212.59Z"/><path class="cls-41" d="M475.82,220.07s2.44-1.44,2.91-3.14-1.51-4.66-1.42-7.2-1.3-1.06-1.4-.42.64,3,0,4-2.42-.19-3.32-1-5.17-5-6.09-4.83,2.1,3.2,2.1,3.2-3.56-2.76-4.43-2.41,5,4.39,5,4.39a19.71,19.71,0,0,1,3,3.69C473,217.78,475.82,220.07,475.82,220.07Z"/><path class="cls-43" d="M470.52,284.63l1.57-.15,24.08-2.27-2.56-16.81s2.13-4.26-2.73-7.88a1.57,1.57,0,0,0-.19-.15,13.57,13.57,0,0,0-7-2.11,17.7,17.7,0,0,0-2.53.07c-3.72.38-6.73,2-6.15,4.93C476.09,265.72,470.52,284.63,470.52,284.63Z"/><path class="cls-44" d="M470.52,284.63l1.57-.15c5.13-2.88,10.42-6.29,10.64-8.17.43-3.66-5.42-4.43-5.42-4.43a20.23,20.23,0,0,1,4.4-3.84c1.66-1.19,3-2.18,2.7-3.31s-2-2.05-3.46-2.59a17.16,17.16,0,0,0-2.15-.64,3.63,3.63,0,0,1,2.16-.77c2-.16,4.61.54,6.22.77,2.26.33,2.75-2.12-1.09-3.25-3.66-1.09-2.52-2.82-2.41-3h0l-.34-9.11c1.77,1.39,2.79.31,3.32-.8a6.52,6.52,0,0,0,.51-1.51c-.56-.08-1.47-1.09-2.45-2.51a31.9,31.9,0,0,1-3.78-7.57c-1.19-3.89-5.12-13.68-5.12-13.68l-.07.07c.8,2.48,3.23,10.37,3.18,13.59-.06,3.86,2.78,10.48,2.78,10.48a2.12,2.12,0,0,0,.23,1c-.12,1.14-.54,5.48-.8,10.08-3.72.38-6.73,2-6.15,4.93C476.09,265.72,470.52,284.63,470.52,284.63Z"/><path class="cls-45" d="M569,178.68a1.84,1.84,0,0,0,.18.51h0a8.85,8.85,0,0,0,4.92,3.61,3.33,3.33,0,0,0,1.18.11,1.06,1.06,0,0,0,.31,0c1.62-.49,3.14-4.27,4.21-5.3s-6.71-9.08-14.57-11.1a13.07,13.07,0,0,0-1.72-.34C558.33,165.41,568.62,176.52,569,178.68Z"/><path class="cls-46" d="M537.39,281.48l.45,1.5,1.55,5.23,6.1,20.37.23.77h0a38.18,38.18,0,0,0,4.6-2.22c5.23-2.9,13.39-8.68,16.15-17.56,2.38-7.61,0-15.49,0-15.49,1.92-14.79-6-51.9-6-51.9,3.19-5.7,13.46-35.25,14.84-39.26.1-.29.16-.44.16-.44a8.67,8.67,0,0,0-.61-1.79,3.8,3.8,0,0,0-5.33-1.92l-.32.42h0c-2.78,3.69-22.52,30.09-23.74,35.11-1.32,5.41-.85,50.46-1.87,53.23-.18.47-.47,1.19-.85,2.06C540.94,273.8,537.39,281.48,537.39,281.48Z"/><path class="cls-47" d="M470.52,284.63s.06,3.7.4,8.79a127.91,127.91,0,0,0,2.46,19,23.92,23.92,0,0,0,2.73,7.37c2.45,3.69,16.7,5.52,32.31,4.16,16.62-1.46,34.78-6.53,41.91-16.82.08-.11.15-.2.22-.31,2.42-3.63.73-14.47-2.57-24.61q0-.12-.09-.27c-.84-2.53-1.76-5-2.75-7.33-.11-.24-.21-.48-.31-.71-.18-.4-.36-.82-.56-1.23-.5-1.08-1-2.11-1.54-3.07-2.25-4.2-4.63-7.18-6.78-7.79a8.06,8.06,0,0,0-1.94-.3c-6.15-.18-6.45,8.58-6.45,8.58s-9.49,11.1-17.52,6.5c-3.64-2.1-11.22-3.59-18.82-3.25C482.06,273.73,472.87,276.77,470.52,284.63Z"/><path class="cls-48" d="M551.53,337.64s7.14-1.3,6.47.08-6.61,3.19-6.61,3.19Z"/><path class="cls-41" d="M540,343.14a1.75,1.75,0,0,0,.25.56c1.39,2.17,7,3.4,7.57,3.52h0s4.77,3.37,5.64,3.09-3.72-4-3.72-4l1-1.3s5.31,1.76,6.53.56-6.35-2.92-6.35-2.92l1-1.22s6.89-.36,7.44-1.58c.27-.58-1.39-.79-3.16-.82s-3.94.06-3.94.06a41.9,41.9,0,0,0,5.14-1.91c.51-.27.86-.52.92-.72.27-.89-4.8.63-8.2.47s-7.08-.21-7.08-.21a13.4,13.4,0,0,0-3,4.64A3.19,3.19,0,0,0,540,343.14Z"/><path class="cls-49" d="M470.92,293.42a127.91,127.91,0,0,0,2.46,19c13.15-14.09,10-24.75,10-24.75Z"/><path class="cls-50" d="M475.11,285.91c1.6,1.3,8.24,1.76,8.24,1.76.95,3.77-3.35,8.86-7.24,11s-6.68-1.36-10-4.2C466.13,294.44,471.53,283,475.11,285.91Z"/><path class="cls-41" d="M447.49,283.29A7.05,7.05,0,0,0,449,285.7c5.29,6,22.18,14.89,31.2,3.07a3.38,3.38,0,0,0,.58-1.21,3.33,3.33,0,0,0,.1-.55c.16-1.64-.69-3.61-2.15-5.66-.14-.18-.26-.36-.39-.52l-.26-.34-.27-.35s0,0,0,0-.26-.3-.4-.46a40.92,40.92,0,0,0-6.31-5.87h0c-4.5-3.45-9.42-6-12.05-5.76a2.1,2.1,0,0,0-1.36.5S445.91,278,447.49,283.29Z"/><path class="cls-51" d="M478.37,280.82c-.17-.22-.34-.45-.53-.68-2.26-.07-5.73.05-3.65,1.88C475.61,283.26,477.23,282,478.37,280.82Z"/><path class="cls-41" d="M471.42,280.38a3.38,3.38,0,0,0,1.63,2.48,1.81,1.81,0,0,0,1.07.08,5.9,5.9,0,0,0,4-2.45,3.87,3.87,0,0,0,.57-1.19l-2-1.33s2.11-2.3,1.33-3.15c-1.09-1.22-4.56,0-6.88-1h0A24.19,24.19,0,0,0,471.42,280.38Z"/><path class="cls-52" d="M468.06,272.68s-2.45,1.21-2.21,3.63a11.23,11.23,0,0,1,2.64-3Z"/><path class="cls-52" d="M468.5,276.43a.75.75,0,1,0,.63-.86A.75.75,0,0,0,468.5,276.43Z"/><path class="cls-53" d="M449,285.7c5.29,6,22.18,14.89,31.2,3.07a3.38,3.38,0,0,0,.58-1.21c-2,1.16-3.95,1.72-4.63.12-1.57-3.69-4.31-6-6.94-6.39s-2.81-2.07-3.39-5-8.26-3.52-8.26-3.52-4.26,5.55-4.49,6.25C453,279.36,451.11,282.4,449,285.7Z"/><path class="cls-54" d="M446.35,282.13c-2.58,2.56.56,6.74,4.9,9.33h0l.72.42,0,0,.14.07.13.06,0,0a16.9,16.9,0,0,0,2.81,1.17,28.51,28.51,0,0,0,11,1.21l1.31-4.68c-.1.13-.76.83-3.57.23-3.08-.66-5.47-3.53-3.61-5.18s5.3,1,5.3,1l.41-.67c-3-3-3.7-7.27-7.26-8.08,0,0,0-5.91,2.77-8.7a4,4,0,0,0-2.7-2.34c-4.45-1.22-9.61,2.37-12.55,8.27S446.35,282.13,446.35,282.13Z"/><path class="cls-52" d="M439.64,278s-2.27,4.38-.89,8.83,6.19,5.48,6.19,5.48a4.88,4.88,0,0,1-2.38-2.71s4.46,4.12,9.77,2.42l0,0-.13-.06-.14-.07,0,0c-.19-.1-.44-.24-.72-.42h0c-1.53-1-3.95-3.42-2.31-7.75a20.27,20.27,0,0,1,7.2-9.18c-.46.36-3.5,2.86-3.27,6.76a6.83,6.83,0,0,1,5.84-4.23s0-5.91,2.77-8.7a7.31,7.31,0,0,0-.81-2.7,4.22,4.22,0,0,0-3.1-2.28c-3.65-.59-11.2,1.52-15,8.09a32.12,32.12,0,0,1-4.84,6.69,6.24,6.24,0,0,1-1.32,1.09A3.84,3.84,0,0,0,439.64,278Z"/><path class="cls-55" d="M441.32,275.7c-2.89,5.34,0,10.29.43,7.77s3.27-5.59,3.27-5.59c-1.84,4.3,1.43,12.4,2,6.08s5.51-8.84,7-10.19,3.89-.76,4.38-1.1-1.54-1.93-1.06-3.39,2-.41,2.52-2.27a2.43,2.43,0,0,1,.83-1.35,4.22,4.22,0,0,0-3.1-2.28c-3.65-.59-11.2,1.52-15,8.09a32.12,32.12,0,0,1-4.84,6.69C439.3,278.21,441.1,276,441.32,275.7Z"/><path class="cls-56" d="M482.73,316.49S499,323,505.66,323.44a11.53,11.53,0,0,1,2.76.51c16.62-1.46,34.78-6.53,41.91-16.82,5.23-2.9,13.39-8.68,16.15-17.56,2.38-7.61,0-15.49,0-15.49,1.92-14.79-6-51.9-6-51.9,3.19-5.7,13.46-35.25,14.84-39.26a1.06,1.06,0,0,0,.31,0c1.62-.49,3.14-4.27,4.21-5.3s-6.71-9.08-14.57-11.1a24.55,24.55,0,0,0,5.74,7.26c4,3.4,3.86,7,3.86,7s-.26.77-.73,2.12c-2.87,8.28-13.34,38.05-16.05,39.26-3.14,1.4-4.06-2-4.06-2-.64,5.46,2.28,27.14,4.87,42.39s.82,20.07.82,20.07c-2-4.41-8-6.22-8-6.22,6.93,8,4.73,14.36,4.73,14.36.78-10.08-12.15-18-12.15-18,.2.41.38.83.56,1.23.11.24.21.48.31.71a69.49,69.49,0,0,1,2.75,7.33q0,.15.09.27c5,16.53-.16,25.19-2.25,27.14h0c-.8.72-1.14.49-.31-.66a.83.83,0,0,0,.08-.12c3.31-4.72,1.85-12.76-.73-19.84s-6.92-5.76-6.92-5.76a17.72,17.72,0,0,1,1.55,5.23c1.28,7.93-.72,18.4-3.06,21.15-2.92,3.41-10.87,6.64-8,0s-.32-31.32-2.81-21.69c-2.42,9.43-13.27,24.13-13.73,24.74.2-.55,4-10.76,2.59-13.13S503.72,311,497.07,312.42,482.73,316.49,482.73,316.49Z"/><path class="cls-43" d="M476.11,319.79l.07.09c.87,1.23,10.37,14.32,15.24,17.79,2.11,1.51,5.79.8,9.39-.85a29.41,29.41,0,0,0,4.45-2.51,20.47,20.47,0,0,0,5-4.52,4.23,4.23,0,0,0,.86-2c.32-4.18-5.45-4.38-5.45-4.38L499.09,315S481.23,314.31,476.11,319.79Z"/><path class="cls-50" d="M497.07,334.27l3.74,2.55,5.12,3.49s0,0,0,0l1-1.45,5.37-7.4h0a25.79,25.79,0,0,0-2.15-1.69h0a8.12,8.12,0,0,0-3.3-1.6S499.45,328.18,497.07,334.27Z"/><path class="cls-41" d="M504.71,338.71a3.72,3.72,0,0,0,1.22,1.6s0,0,0,0c1.78,1.5,5.2,2.93,9.54,3.75,5.09,1,20.42-.08,24.74-.39l1.15-.09.37-1.47,1.35-5.44s-17.14-.49-21.4-2.35c-3-1.3-6.54-2.77-9.33-2.86a4.84,4.84,0,0,0-3.08.78,28.12,28.12,0,0,0-3.16,3.19C505.18,336.64,504.43,337.89,504.71,338.71Z"/><path class="cls-57" d="M476.18,319.88c.87,1.23,10.37,14.32,15.24,17.79,2.11,1.51,5.79.8,9.39-.85l5.12,3.49s0,0,0,0c1.78,1.5,5.2,2.93,9.54,3.75,5.09,1,20.42-.08,24.74-.39,1.39,2.17,7,3.4,7.57,3.52a6.23,6.23,0,0,1,0-4c1-1.95,0-2.33,0-2.33s-4.38,2.66-6.07,1.23a2.93,2.93,0,0,0-1.68-.8,1.37,1.37,0,0,0-1,.28s-24.82.33-29.52-1.28a6.61,6.61,0,0,1-2.54-1.45,3.32,3.32,0,0,1-.87-3.43l-.89-1.15-2.19-2.83a7.59,7.59,0,0,1,7.16-1.7h0c-1.25-5-12.69-1.62-16.6-1.24s-4.71-.36-4.71-.36,4.41-2.13,4.68-3.78-1.9-3.86-4.69-.45S478.7,323.2,476.18,319.88Z"/><path class="cls-58" d="M484.74,306.1c1.46-.32,6.82-9.4,8.88-10.54s2.55-.17,2.55-.17-7.86,15.57-.72,12.17,21.25-26.27,21.25-26.27c2.6,5.68-1.46,13.61,1.46,11.66s9.24-18.16,9.24-18.16c4.38,4.37,4.87,21.09,7.3,13.79s-3.38-21.41-3.38-21.41c6.82,1.62,13.44,13,13.44,13-1.76-8.62-7.36-15.29-10.75-18.66-6.15-.18-6.45,8.58-6.45,8.58s-9.49,11.1-17.52,6.5c-3.64-2.1-11.22-3.59-18.82-3.25-5.84,5.39-5.56,9.06-5.13,10.22.54,1.46,7.25-8.44,6.11-2.27S483.28,306.43,484.74,306.1Z"/></g></g></svg>