<svg id="Layer_1" data-name="Layer 1" xmlns="http://www.w3.org/2000/svg" xmlns:xlink="http://www.w3.org/1999/xlink" viewBox="0 0 1476.68 392.93"><defs><clipPath id="clip-path" transform="translate(-240.1 -405.18)"><ellipse cx="1284" cy="698" rx="588" ry="515" fill="none"/></clipPath><clipPath id="clip-path-2" transform="translate(-240.1 -405.18)"><path d="M1459,935c-124.82,92.84-799.31,13-912,13C237.17,948-14,793.76-14,603.5S237.17,259,547,259,1544.8,871.18,1459,935Z" fill="none"/></clipPath></defs><g id="red"><g clip-path="url(#clip-path)"><path d="M315.18,406.05A102.14,102.14,0,0,1,417.32,508.19v5.52A102.13,102.13,0,0,1,315.18,615.85H300.05a15.79,15.79,0,1,1,0-31.58h13.53a72.14,72.14,0,0,0,72.14-72.14V509.8a72.14,72.14,0,0,0-72.14-72.14H271.69v73.47a15.8,15.8,0,0,1-31.59,0V423.66a17.6,17.6,0,0,1,17.59-17.59h57.49ZM271.69,555.28v44.79a15.8,15.8,0,1,1-31.59,0V555.28a15.8,15.8,0,0,1,31.59,0Z" transform="translate(-240.1 -405.18)" fill="#e561b5"/><path d="M600.36,471.88a64.51,64.51,0,0,1-48.12,62.27l43.09,58.41c6.72,9.1,1,22.48-10.29,23.26a21.39,21.39,0,0,1-18.75-8.72l-51.58-70.53-61.46-.16a15.78,15.78,0,0,1-15.75-15.79V425.49a19.42,19.42,0,0,1,19.43-19.42h78.76a64.68,64.68,0,0,1,64.68,64.68v1.14ZM469.1,564.63v36a15.23,15.23,0,0,1-15.23,15.24h-1.13a15.23,15.23,0,0,1-15.23-15.24v-36a15.8,15.8,0,0,1,31.59,0Zm99.67-94a33,33,0,0,0-33-33H469.1V505h66.69a33,33,0,0,0,33-33Z" transform="translate(-240.1 -405.18)" fill="#e561b5"/><path d="M755.13,584.29a15.8,15.8,0,0,1,0,31.59H638.39a15.79,15.79,0,0,1-15.79-15.8V421.87a15.79,15.79,0,0,1,15.79-15.8H750.28a15.8,15.8,0,0,1,0,31.59h-96.1V584.29Zm-24-89.11a15.79,15.79,0,1,1,0,31.58h-48a15.79,15.79,0,0,1,0-31.58Z" transform="translate(-240.1 -405.18)" fill="#e561b5"/><path d="M941.43,615a16.59,16.59,0,0,1-15.49-10.63L865.93,449l-59.4,155.34A16.61,16.61,0,0,1,791,615a15.4,15.4,0,0,1-14.39-20.91L842.92,421A24.68,24.68,0,0,1,889,421l66.83,173.08A15.41,15.41,0,0,1,941.43,615Zm-41.09-59.48a15.89,15.89,0,0,1-15.89,15.89H847.91a15.82,15.82,0,0,1,0-31.64l36.55-.12A15.86,15.86,0,0,1,900.34,555.51Z" transform="translate(-240.1 -405.18)" fill="#e561b5"/><path d="M1148.74,406.06A19.25,19.25,0,0,1,1168,425.31V600.1a15.8,15.8,0,1,1-31.59,0v-112L1093.53,600a24.67,24.67,0,0,1-46.06,0l-43.79-113.39v21a15.8,15.8,0,0,1-31.59,0v-85.6a16.05,16.05,0,0,1,15.89-16h3.12a22,22,0,0,1,20.6,14l58.82,151.92,58.9-154a18.65,18.65,0,0,1,17.41-12Zm-145,145.72v48.3a15.79,15.79,0,1,1-31.58,0v-48.3a15.79,15.79,0,0,1,31.58,0Z" transform="translate(-240.1 -405.18)" fill="#e561b5"/><path d="M1329.92,584.21a15.8,15.8,0,1,1,0,31.59H1213.19a15.79,15.79,0,0,1-15.8-15.79V421.79a15.79,15.79,0,0,1,15.8-15.79h111.88a15.79,15.79,0,1,1,0,31.58H1229V495.1h76.91a15.8,15.8,0,0,1,0,31.6H1229v57.51Z" transform="translate(-240.1 -405.18)" fill="#e561b5"/><path d="M1516.23,616.73a16.59,16.59,0,0,1-15.5-10.62l-12.75-33h-94l-12.62,33a16.64,16.64,0,0,1-15.52,10.69,15.4,15.4,0,0,1-14.38-20.92l66.29-173.06a24.68,24.68,0,0,1,46.06,0l66.82,173.07A15.4,15.4,0,0,1,1516.23,616.73Zm-40.45-75.25-35-90.76L1406,541.48Z" transform="translate(-240.1 -405.18)" fill="#e561b5"/><path d="M1563.28,615.55a15.78,15.78,0,0,1-15.79-15.79V422.62a16.73,16.73,0,0,1,16.73-16.73h2.53a23.06,23.06,0,0,1,18.78,9.67l99.66,139.61V421.68a15.8,15.8,0,0,1,31.59,0V599a16.73,16.73,0,0,1-16.73,16.73,23.09,23.09,0,0,1-18.74-9.62L1579.09,463.64V599.76A15.8,15.8,0,0,1,1563.28,615.55Z" transform="translate(-240.1 -405.18)" fill="#e561b5"/></g></g><g id="blue"><g clip-path="url(#clip-path-2)"><path d="M315.18,406.05A102.14,102.14,0,0,1,417.32,508.19v5.52A102.13,102.13,0,0,1,315.18,615.85H300.05a15.79,15.79,0,1,1,0-31.58h13.53a72.14,72.14,0,0,0,72.14-72.14V509.8a72.14,72.14,0,0,0-72.14-72.14H271.69v73.47a15.8,15.8,0,0,1-31.59,0V423.66a17.6,17.6,0,0,1,17.59-17.59h57.49ZM271.69,555.28v44.79a15.8,15.8,0,1,1-31.59,0V555.28a15.8,15.8,0,0,1,31.59,0Z" transform="translate(-240.1 -405.18)" fill="#6668f8"/><path d="M600.36,471.88a64.51,64.51,0,0,1-48.12,62.27l43.09,58.41c6.72,9.1,1,22.48-10.29,23.26a21.39,21.39,0,0,1-18.75-8.72l-51.58-70.53-61.46-.16a15.78,15.78,0,0,1-15.75-15.79V425.49a19.42,19.42,0,0,1,19.43-19.42h78.76a64.68,64.68,0,0,1,64.68,64.68v1.14ZM469.1,564.63v36a15.23,15.23,0,0,1-15.23,15.24h-1.13a15.23,15.23,0,0,1-15.23-15.24v-36a15.8,15.8,0,0,1,31.59,0Zm99.67-94a33,33,0,0,0-33-33H469.1V505h66.69a33,33,0,0,0,33-33Z" transform="translate(-240.1 -405.18)" fill="#6668f8"/><path d="M755.13,584.29a15.8,15.8,0,0,1,0,31.59H638.39a15.79,15.79,0,0,1-15.79-15.8V421.87a15.79,15.79,0,0,1,15.79-15.8H750.28a15.8,15.8,0,0,1,0,31.59h-96.1V584.29Zm-24-89.11a15.79,15.79,0,1,1,0,31.58h-48a15.79,15.79,0,0,1,0-31.58Z" transform="translate(-240.1 -405.18)" fill="#6668f8"/><path d="M941.43,615a16.59,16.59,0,0,1-15.49-10.63L865.93,449l-59.4,155.34A16.61,16.61,0,0,1,791,615a15.4,15.4,0,0,1-14.39-20.91L842.92,421A24.68,24.68,0,0,1,889,421l66.83,173.08A15.41,15.41,0,0,1,941.43,615Zm-41.09-59.48a15.89,15.89,0,0,1-15.89,15.89H847.91a15.82,15.82,0,0,1,0-31.64l36.55-.12A15.86,15.86,0,0,1,900.34,555.51Z" transform="translate(-240.1 -405.18)" fill="#6668f8"/><path d="M1148.74,406.06A19.25,19.25,0,0,1,1168,425.31V600.1a15.8,15.8,0,1,1-31.59,0v-112L1093.53,600a24.67,24.67,0,0,1-46.06,0l-43.79-113.39v21a15.8,15.8,0,0,1-31.59,0v-85.6a16.05,16.05,0,0,1,15.89-16h3.12a22,22,0,0,1,20.6,14l58.82,151.92,58.9-154a18.65,18.65,0,0,1,17.41-12Zm-145,145.72v48.3a15.79,15.79,0,1,1-31.58,0v-48.3a15.79,15.79,0,0,1,31.58,0Z" transform="translate(-240.1 -405.18)" fill="#6668f8"/><path d="M1329.92,584.21a15.8,15.8,0,1,1,0,31.59H1213.19a15.79,15.79,0,0,1-15.8-15.79V421.79a15.79,15.79,0,0,1,15.8-15.79h111.88a15.79,15.79,0,1,1,0,31.58H1229V495.1h76.91a15.8,15.8,0,0,1,0,31.6H1229v57.51Z" transform="translate(-240.1 -405.18)" fill="#6668f8"/><path d="M1516.23,616.73a16.59,16.59,0,0,1-15.5-10.62l-12.75-33h-94l-12.62,33a16.64,16.64,0,0,1-15.52,10.69,15.4,15.4,0,0,1-14.38-20.92l66.29-173.06a24.68,24.68,0,0,1,46.06,0l66.82,173.07A15.4,15.4,0,0,1,1516.23,616.73Zm-40.45-75.25-35-90.76L1406,541.48Z" transform="translate(-240.1 -405.18)" fill="#6668f8"/><path d="M1563.28,615.55a15.78,15.78,0,0,1-15.79-15.79V422.62a16.73,16.73,0,0,1,16.73-16.73h2.53a23.06,23.06,0,0,1,18.78,9.67l99.66,139.61V421.68a15.8,15.8,0,0,1,31.59,0V599a16.73,16.73,0,0,1-16.73,16.73,23.09,23.09,0,0,1-18.74-9.62L1579.09,463.64V599.76A15.8,15.8,0,0,1,1563.28,615.55Z" transform="translate(-240.1 -405.18)" fill="#6668f8"/></g></g><g id="moon"><path d="M316.46,559a47.4,47.4,0,0,1-24.58-6.83,47.55,47.55,0,0,0,0-81.42A47.55,47.55,0,1,1,316.46,559Z" transform="translate(-240.1 -405.18)" fill="#f7cf52"/><path d="M316.45,559c-1.45,0-2.88-.07-4.3-.19a47.55,47.55,0,0,0,0-94.71c1.42-.12,2.86-.19,4.31-.19a47.55,47.55,0,1,1,0,95.09Z" transform="translate(-240.1 -405.18)" fill="#e2bc50"/></g></svg>