<svg id="Layer_1" data-name="Layer 1" xmlns="http://www.w3.org/2000/svg" viewBox="0 0 177.22 209.82"><g id="moon"><path d="M187.31,248.44a47.34,47.34,0,0,1-24.58-6.84,47.55,47.55,0,0,0,0-81.42,47.55,47.55,0,1,1,24.58,88.26Z" transform="translate(-111.39 -95.09)" fill="#f7cf52"/><path d="M187.3,248.43c-1.45,0-2.88-.06-4.3-.19a47.55,47.55,0,0,0,0-94.7c1.42-.13,2.86-.19,4.31-.19a47.54,47.54,0,1,1,0,95.08Z" transform="translate(-111.39 -95.09)" fill="#e2bc50"/></g><path id="d" d="M186.47,95.09A102.14,102.14,0,0,1,288.61,197.23v5.52A102.13,102.13,0,0,1,186.47,304.89H171.34a15.79,15.79,0,1,1,0-31.58h13.53A72.14,72.14,0,0,0,257,201.17v-2.33a72.14,72.14,0,0,0-72.14-72.14H143v73.47a15.8,15.8,0,1,1-31.59,0V112.71A17.59,17.59,0,0,1,129,95.12h57.49ZM143,244.33v44.78a15.8,15.8,0,1,1-31.59,0V244.33a15.8,15.8,0,1,1,31.59,0Z" transform="translate(-111.39 -95.09)" fill="#6668f8"/></svg>